<?xml version="1.0" encoding="utf-8"?>
<!-- Generator: Adobe Illustrator 17.1.0, SVG Export Plug-In . SVG Version: 6.00 Build 0)  -->
<!DOCTYPE svg PUBLIC "-//W3C//DTD SVG 1.1//EN" "http://www.w3.org/Graphics/SVG/1.1/DTD/svg11.dtd">
<svg version="1.1" id="Layer_1" xmlns="http://www.w3.org/2000/svg" xmlns:xlink="http://www.w3.org/1999/xlink" x="0px" y="0px"
	 viewBox="0 0 897.5 136" enable-background="new 0 0 897.5 136" xml:space="preserve">
<title>my_account3</title>
<path fill="#A9A9A9" d="M113.7,53.5v2.9h2.3c0.8,0,0.9,0.1,0.9,0.9v3.1c0.1,0.3-0.1,0.7-0.4,0.8c-0.1,0-0.2,0-0.3,0h-18
	c-0.3,0.1-0.7-0.1-0.8-0.5c0-0.1,0-0.2,0-0.3v-3.2c-0.1-0.3,0.1-0.7,0.5-0.8c0.1,0,0.2,0,0.3,0h2.4v-2.9h-9.4
	c-1.1,0.1-2.1-0.6-2.2-1.7c0-0.2,0-0.3,0-0.5V27c-0.1-1.1,0.7-2.1,1.8-2.2c0.2,0,0.3,0,0.5,0H123c1.1-0.1,2.2,0.7,2.3,1.8
	c0,0.2,0,0.3,0,0.5v24.2c0.1,1.1-0.7,2.1-1.8,2.2h-0.1H113.7L113.7,53.5z M90,46.8h34.2V26.9c0-0.6-0.4-1-1-1h-32
	c-0.5-0.1-1.1,0.2-1.2,0.8c0,0.1,0,0.3,0,0.4V46.8L90,46.8z M90,48v3.2c-0.1,0.6,0.2,1.1,0.8,1.3c0.2,0,0.4,0,0.5,0H123
	c0.5,0.1,1.1-0.2,1.2-0.7c0-0.2,0-0.3,0-0.5V48H90L90,48z M115.7,57.6H98.5v2.5h17.2V57.6L115.7,57.6L115.7,57.6z M101.7,56.4h10.8
	v-2.9h-10.9L101.7,56.4L101.7,56.4z"/>
<path fill="#A9A9A9" d="M98,34.8h-5c-0.7,0-0.8-0.1-0.8-0.8v-4.5c-0.1-0.3,0.1-0.6,0.4-0.7c0.1,0,0.2,0,0.3,0h10.2
	c0.3-0.1,0.6,0.1,0.7,0.4c0,0.1,0,0.2,0,0.3v4.6c0.1,0.3-0.2,0.6-0.5,0.7c-0.1,0-0.1,0-0.2,0H98L98,34.8z M93.3,33.7h9.3V30h-9.3
	V33.7z"/>
<path fill="#A9A9A9" d="M114.4,31.9"/>
<path fill="#A9A9A9" d="M113.9,42.8"/>
<path fill="#A9A9A9" d="M98,36.5h4.8c0.2,0,0.4,0,0.5,0.1c0.2,0.1,0.3,0.3,0.3,0.5c-0.1,0.2-0.2,0.4-0.4,0.5c-0.2,0-0.3,0-0.5,0
	h-9.8c-0.2,0-0.3,0-0.5-0.1s-0.3-0.3-0.3-0.5s0.1-0.4,0.3-0.5c0.2-0.1,0.4-0.1,0.5-0.1L98,36.5L98,36.5z"/>
<path fill="#A9A9A9" d="M98,40.7h-4.8c-0.2,0-0.3,0-0.5,0c-0.2-0.1-0.3-0.3-0.4-0.5c0-0.2,0.1-0.4,0.3-0.5c0.1-0.1,0.3-0.1,0.5-0.1
	h10c0.1,0,0.2,0,0.3,0c0.3,0,0.5,0.3,0.5,0.6l0,0l0,0c0,0.3-0.2,0.5-0.5,0.5H98L98,40.7z"/>
<path fill="#A9A9A9" d="M98,43.7h-5c-0.5,0-0.7-0.2-0.7-0.6c0-0.4,0.2-0.5,0.8-0.5h10.3c0.3,0,0.5,0.2,0.6,0.5v0.1
	c0,0.3-0.2,0.5-0.5,0.5l0,0H98L98,43.7z"/>
<path fill="#A9A9A9" d="M111.7,38.1c1.2-1,7.8-6.5,9-7.5l0.3-0.3c0.2-0.2,0.5-0.3,0.8-0.1l0.1,0.1c0.2,0.2,0.2,0.5,0,0.7l-0.1,0.1
	c-0.6,0.5-6.7,5.6-7.3,6.1l-2.3,2c-0.5,0.4-0.8,0.4-1.1-0.2l-1.3-2.1c-0.2-0.3-0.1-0.6,0.1-0.8s0.6-0.1,0.8,0.1v0.1
	C111.1,37,111.4,37.5,111.7,38.1z"/>
<path fill="#A9A9A9" d="M107,51.6c-0.9,0-1.6-0.8-1.6-1.7s0.8-1.6,1.7-1.6c0.9,0,1.6,0.8,1.6,1.7S107.9,51.6,107,51.6L107,51.6z
	 M107,50.6h0.2c0.2-0.2,0.3-0.4,0.4-0.6c0-0.2-0.1-0.5-0.4-0.5h-0.1c-0.2,0-0.5,0.1-0.5,0.4V50C106.7,50.2,106.9,50.4,107,50.6
	L107,50.6L107,50.6z"/>
<g id="_3zKbbJ.tif">
	<path fill="#A9A9A9" d="M190.6,61.2c-0.7-0.1-1.5-0.2-2.2-0.3c-0.8-0.1-1.6-0.4-2.3-0.8c-0.6-0.3-1-1-1-1.7V44.1
		c-0.1-0.9,0.4-1.7,1.2-2c0.9-0.4,1.9-0.7,2.9-0.8c2.3-0.3,4.7-0.2,7,0.3c0.6,0.1,1.2,0.4,1.7,0.7c0.5,0.2,0.8,0.6,1,1.1v15.7
		c-0.3,0.5-0.7,0.9-1.2,1.2c-0.5,0.2-1,0.4-1.5,0.5c-0.9,0.2-1.8,0.3-2.6,0.4H190.6L190.6,61.2z M192,44.9c1,0,2-0.1,3-0.3
		c0.8-0.1,1.6-0.4,2.3-0.8c0.3-0.2,0.3-0.3,0-0.5s-0.7-0.4-1.1-0.5c-2.5-0.7-5.1-0.7-7.7-0.2c-0.7,0.1-1.3,0.3-1.9,0.7
		c-0.3,0.2-0.3,0.3,0,0.5c0.3,0.1,0.5,0.3,0.8,0.4C188.9,44.7,190.4,44.9,192,44.9L192,44.9z M191.9,47.4c1.7,0.1,3.4-0.2,5-0.8
		c0.5-0.1,0.8-0.5,0.8-1c0-0.1,0-0.1,0-0.2c0-0.2,0-0.4-0.3-0.2c-0.6,0.3-1.2,0.4-1.8,0.5c-2.9,0.6-6,0.4-8.9-0.5
		c-0.1,0-0.2-0.1-0.3,0.1c-0.2,0.5,0,1,0.5,1.2l0,0h0.2c0.2,0.1,0.4,0.2,0.6,0.2C189,47.2,190.4,47.4,191.9,47.4z M192,49.9
		c1.7,0,3.3-0.2,4.9-0.8c0.5-0.1,0.8-0.5,0.8-1c0-0.1,0-0.1,0-0.2c0-0.3-0.1-0.3-0.3-0.2c-0.4,0.2-0.7,0.3-1.1,0.4
		c-3.1,0.8-6.4,0.7-9.5-0.4c-0.1,0-0.2-0.2-0.3,0.1c-0.2,0.5,0,1,0.5,1.2l0,0l0.1,0.1c0.2,0.1,0.4,0.2,0.6,0.2
		C189,49.7,190.5,50,192,49.9L192,49.9z M186.5,50.3c-0.1,1,0,1.1,0.9,1.5l0.4,0.1c1.5,0.4,3.2,0.6,4.8,0.6c1.5,0,3.1-0.2,4.5-0.8
		c0.5-0.1,0.8-0.5,0.7-1c0-0.1-0.1-0.2-0.1-0.3C193.9,51.5,190,51.5,186.5,50.3L186.5,50.3z M186.5,52.8c-0.1,1,0,1.1,0.9,1.5
		l0.3,0.1c1.2,0.4,2.5,0.5,3.7,0.5c1.8,0.1,3.7-0.1,5.4-0.7c0.5-0.1,0.9-0.5,0.8-1c0-0.1-0.1-0.3-0.1-0.4
		C193.9,54,190,54,186.5,52.8L186.5,52.8z M186.5,55.2c-0.1,1-0.1,1.2,0.9,1.5l0.4,0.1c1.4,0.4,2.8,0.6,4.2,0.6
		c1.7,0.1,3.4-0.2,5-0.8c0.5-0.1,0.8-0.5,0.8-1c0-0.1,0-0.1,0-0.2c0-0.2,0-0.3-0.3-0.2c-2.2,0.8-4.5,1-6.7,0.8
		C189.2,56.1,187.8,55.8,186.5,55.2L186.5,55.2z M186.5,57.8c-0.1,1-0.1,1.1,0.8,1.5l0.4,0.2c2,0.5,4.1,0.7,6.1,0.5
		c1-0.1,2-0.3,3-0.7c0.5-0.1,0.8-0.5,0.8-1c0-0.1,0-0.1,0-0.2c0-0.3-0.1-0.2-0.3-0.2c-1.5,0.6-3.1,0.9-4.7,0.8
		C190.5,58.8,188.4,58.5,186.5,57.8L186.5,57.8z"/>
	<path fill="#A9A9A9" d="M161.6,37.1c0.2-0.2,0.5-0.3,0.8-0.3h30.5c0.7,0,0.8,0.1,0.8,0.8v1.5c0.1,0.3-0.1,0.6-0.4,0.6
		c-0.3,0.1-0.6-0.1-0.6-0.4c0-0.1,0-0.1,0-0.2v-0.3c0-1,0-1-1-1h-28.5c-0.4,0-0.5,0.1-0.5,0.5v13c-0.1,0.2,0.1,0.4,0.3,0.5
		c0.1,0,0.1,0,0.2,0h19.7c0.2,0,0.3,0,0.5,0c0.3,0,0.5,0.2,0.5,0.5l0,0l0,0c0,0.3-0.2,0.5-0.5,0.5c-0.1,0-0.2,0-0.4,0h-20.6
		c-0.3,0-0.6-0.1-0.8-0.3V37.1L161.6,37.1L161.6,37.1z"/>
	<path fill="#A9A9A9" d="M171.6,24.9c1,0.5,2.1,0.9,3.2,1.4l11.4,4.8c0.1,0,0.3,0.1,0.4,0.2c0.2,0.1,0.3,0.4,0.1,0.7
		c-0.1,0.2-0.4,0.4-0.6,0.3c-0.2-0.1-0.3-0.1-0.4-0.2l-13.6-5.7c-0.4-0.1-0.6-0.1-0.7,0.2s-0.5,1-0.8,1.6c-0.1,0.3-0.5,0.4-0.7,0.3
		c-0.3-0.1-0.4-0.5-0.3-0.7c0.4-0.8,0.8-1.6,1.2-2.4c0.1-0.1,0.2-0.3,0.3-0.4L171.6,24.9L171.6,24.9z"/>
	<path fill="#A9A9A9" d="M164.7,28.7l2.9,0.7l21.6,4.9l0.2,0.1c0.3,0,0.5,0.3,0.5,0.6v0.1c-0.1,0.3-0.3,0.5-0.6,0.4l0,0h-0.1
		l-1.9-0.4l-21.9-5c-0.2-0.1-0.4,0-0.5,0.2c0,0,0,0.1,0,0.2c-0.3,1.5-0.6,3-1,4.5c0,0.2-0.1,0.4-0.2,0.5c-0.2,0.1-0.4,0.1-0.6,0
		c-0.2-0.1-0.3-0.4-0.2-0.6l0.8-3.5c0.1-0.7,0.3-1.4,0.4-2c0-0.3,0.3-0.5,0.6-0.5l0,0V28.7L164.7,28.7z"/>
	<path fill="#A9A9A9" d="M177,50.4c-3.1,0-5.6-2.4-5.6-5.5s2.4-5.6,5.5-5.6c3,0,5.6,2.4,5.6,5.4l0,0C182.5,47.8,180.1,50.3,177,50.4
		C177.1,50.4,177,50.4,177,50.4z M172.6,44.9c0,2.5,2,4.5,4.5,4.5s4.5-2,4.5-4.5s-2-4.5-4.5-4.5l0,0
		C174.5,40.4,172.6,42.5,172.6,44.9L172.6,44.9L172.6,44.9z"/>
	<path fill="#A9A9A9" d="M169.6,50.5h-2.3c-0.3,0-0.6-0.1-0.8-0.3c-0.7-0.8-1.5-1.7-2.3-2.5c-0.2-0.2-0.2-0.4-0.2-0.6v-4.2
		c0-0.2,0.1-0.5,0.3-0.7l2.5-2.5c0.2-0.2,0.4-0.3,0.7-0.3h4.4c0.3-0.1,0.6,0.1,0.7,0.4v0.1c0,0.3-0.3,0.5-0.6,0.5l0,0h-4.1
		c-0.2,0-0.4,0.1-0.6,0.2c-0.7,0.7-1.3,1.3-2,2c-0.2,0.1-0.3,0.4-0.3,0.6v3.4c0,0.2,0.1,0.5,0.2,0.6c0.6,0.6,1.2,1.3,1.8,1.9
		c0.2,0.2,0.4,0.3,0.6,0.3h4.1c0.3,0,0.5,0.1,0.7,0.3c0.1,0.3,0,0.6-0.2,0.7c-0.1,0-0.2,0.1-0.3,0.1
		C171.2,50.5,170.4,50.5,169.6,50.5z"/>
	<path fill="#A9A9A9" d="M184.5,40.4h-2.3c-0.3,0.1-0.6-0.1-0.7-0.4v-0.1c0-0.3,0.3-0.5,0.6-0.5h4.7c0.3-0.1,0.6,0.1,0.7,0.4v0.1
		c0,0.3-0.3,0.6-0.6,0.5l0,0H184.5L184.5,40.4L184.5,40.4z"/>
	<path fill="#A9A9A9" d="M177.2,44.3c0.4,0,0.8,0.1,1.1,0.3c0.6,0.4,0.7,1.3,0.3,1.9c-0.1,0.2-0.3,0.4-0.6,0.5
		c-0.2,0-0.4,0.2-0.5,0.4s-0.3,0.4-0.5,0.3c-0.2,0-0.5-0.1-0.6-0.3c0-0.2-0.3-0.4-0.5-0.3l0,0c-0.1,0-0.2,0-0.3,0
		c-0.3,0-0.6-0.3-0.5-0.6l0,0l0,0c0-0.3,0.2-0.6,0.5-0.6l0,0h1.6c0.1,0,0.4,0,0.4-0.2s-0.2-0.2-0.4-0.2h-0.7c-0.7,0-1.2-0.5-1.4-1.2
		c-0.1-0.7,0.3-1.3,0.9-1.5c0.2,0,0.3-0.2,0.4-0.4c0.1-0.2,0.3-0.4,0.5-0.4s0.5,0.1,0.6,0.3c0,0.2,0.2,0.4,0.4,0.3h0.2
		c0.3,0,0.6,0.3,0.6,0.6s-0.3,0.6-0.6,0.6l0,0h-1.4c-0.1,0-0.4,0-0.4,0.1c0,0.2,0.2,0.2,0.4,0.2C176.9,44.4,177,44.3,177.2,44.3z"/>
</g>
<g id="hNVzRz.tif">
	<path fill="#A9A9A9" d="M52,48.8l-4.7,4.7c-0.2,0.2-0.3,0.4,0,0.5c0.1,0.1,0.2,0.1,0.3,0.2c1.8,1.3,2.8,3.5,2.7,5.7
		c-0.1,1.3,0,1.3-1.3,1.3H20.7c-0.6,0-0.7-0.2-0.7-0.7c0-0.8,0-1.5,0.1-2.3c0.4-1.7,1.5-3.2,2.9-4.2c1.2-0.9,2.6-1.6,4-2.1
		c1.2-0.5,2.4-1.2,3.4-2c0.2-0.1,0.3-0.3,0.3-0.6c0.2-0.9-0.2-1.8-1-2.3c-1.8-1.3-2.9-3.2-3.3-5.4c0-0.3-0.2-0.6-0.5-0.7
		c-0.6-0.2-1.1-0.6-1.5-1.1c-0.8-0.8-0.8-2,0-2.8c0.3-0.3,0.7-0.5,1.2-0.6c0.3,0,0.6-0.3,0.5-0.6v-0.1c-0.1-2,0.2-4,1-5.9
		c1.2-3,4.1-4.9,7.2-4.9c1.2-0.1,2.4,0,3.6,0.4c3.2,1,4.9,3.2,5.7,6.3c0.4,1.4,0.5,2.8,0.4,4.3c-0.1,0.3,0.1,0.5,0.4,0.6h0.1
		c1.1,0.1,1.9,1,1.9,2.1c0,0.5-0.3,1-0.7,1.4c-0.4,0.5-0.9,0.9-1.4,1.1c-0.3,0.1-0.5,0.3-0.5,0.6c-0.5,2.5-1.9,4.6-4,6
		c-0.2,0.1-0.3,0.3-0.3,0.5l0,0c0,1.6-0.1,1.6,1.3,2.4c0.6,0.4,1.1,0.7,1.7,1c0.2,0.2,0.6,0.1,0.7-0.1l0,0l0,0
		c1.8-1.8,3.6-3.6,5.4-5.4c0.3-0.3,0.4-0.3,0.7,0c0.7,0.8,1.4,1.5,2.2,2.2c0.1,0.2,0.2,0.3,0.4,0.3L52,48.8L52,48.8z M35.1,47.8
		c1.8,0.1,3.5-0.5,4.8-1.7c1.6-1.3,2.6-3.2,2.9-5.3c0-0.4,0.2-0.7,0.6-0.7l0,0l0,0c0.6-0.1,1.2-0.5,1.5-1c0.4-0.3,0.4-0.9,0.1-1.2
		c-0.1-0.2-0.3-0.3-0.5-0.3c-0.4-0.1-0.7-0.2-1.1-0.1c-0.3,0-0.5-0.1-0.4-0.4c0-0.3,0-0.7,0-1.1c0.1-0.2,0-0.4-0.2-0.4
		c-0.1,0-0.1,0-0.2,0c-3.1-0.3-6.1-1.2-8.9-2.7c-0.2-0.2-0.6-0.1-0.7,0.1c-1.3,1.2-2.9,2.1-4.6,2.7c-0.4,0-0.7,0.1-1,0.3
		c-0.1,0.4-0.2,0.7-0.1,1.1c0,0.2-0.1,0.4-0.3,0.4c-0.1,0-0.1,0-0.2,0c-0.4,0-0.8,0-1.1,0.1c-0.5,0.1-0.8,0.5-0.7,1
		c0,0.2,0.1,0.4,0.3,0.5c0.3,0.5,0.8,0.8,1.3,0.9c0.5,0,0.9,0.4,0.9,0.9c0,0.1,0,0.1,0,0.2v0.1C28,45,31.3,47.9,35.1,47.8L35.1,47.8
		L35.1,47.8z M42.1,52.7c-0.9-0.5-1.8-1-2.6-1.6c-0.2-0.2-0.6-0.3-0.8-0.1l0,0l-0.1,0.1c-1.9,1.8-5,1.8-6.9,0
		c-0.2-0.2-0.5-0.2-0.7,0l0,0l0,0c-1.2,0.9-2.4,1.6-3.8,2.1c-1.5,0.5-2.8,1.3-4,2.3c-1.2,0.9-2,2.3-2,3.9c0,0.7,0,0.7,0.7,0.7h26.9
		c0.1,0,0.3-0.1,0.3-0.2v-0.1c0.1-1-0.1-1.9-0.6-2.8c-0.5-0.7-1-1.4-1.7-1.9c-0.6-0.5-0.6-0.5-1.1,0.1c-1.3,1.7-3.2,2.8-5.3,3.3
		c-0.4,0.2-0.9,0.3-1.4,0.4c0.2-0.7,0.5-1.4,0.7-2.1c0.3-1.5,1.1-2.9,2.3-3.8C42,52.9,42,52.8,42.1,52.7L42.1,52.7z M42.6,34.5
		c0.4,0.1,0.4-0.2,0.4-0.6c-0.1-1.3-0.5-2.5-1-3.7c-0.8-1.9-2.5-3.3-4.5-3.8c-1.1-0.3-2.2-0.3-3.4-0.2c-2.4,0.1-4.5,1.5-5.6,3.6
		c-0.7,1.4-1.1,2.9-1.2,4.5c0,0.5,0.1,0.5,0.5,0.4c1.9-0.6,3.6-1.6,4.9-3.1c0.2-0.2,0.5-0.3,0.8-0.1l0,0l0,0
		C36.3,33.1,39.4,34.2,42.6,34.5z M40.9,57.1c1.1-0.2,2.1-0.7,2.9-1.5c1.8-2,3.8-3.8,5.7-5.7c0.4-0.2,0.7-0.6,0.9-1
		c-0.2-0.4-0.5-0.7-0.8-1s-0.5-0.3-0.8,0c-2.1,2.1-4.1,4.2-6.2,6.2C41.6,54.8,41.1,55.9,40.9,57.1z M32,49.2c0,0.3,0,0.6,0.2,0.8
		c1.5,1.6,3.9,1.8,5.6,0.4c0.5-0.3,0.7-0.8,0.7-1.4c0-0.4-0.1-0.5-0.5-0.4c-1.7,0.6-3.6,0.6-5.3,0.1C31.9,48.5,31.9,48.5,32,49.2
		L32,49.2L32,49.2z"/>
	<path fill="#A9A9A9" d="M33.6,58.6h-3.4c-0.5,0-0.4-0.3-0.4-0.6s0-0.5,0.4-0.5H37c0.5,0,0.4,0.3,0.4,0.6s0,0.6-0.4,0.6
		C35.9,58.6,34.7,58.6,33.6,58.6z"/>
	<path fill="#A9A9A9" d="M34.6,56.3h-2.5c-0.4,0-0.4-0.2-0.4-0.5c0.1-0.3-0.2-0.7,0.4-0.7h5c0.6,0,0.3,0.4,0.4,0.7
		c0,0.3,0,0.5-0.4,0.5C36.2,56.3,35.4,56.3,34.6,56.3z"/>
	<path fill="#A9A9A9" d="M27.9,58.6c-0.8,0-0.8,0-0.8-0.7c-0.1-0.2,0-0.4,0.2-0.5c0.1,0,0.2,0,0.3,0H28c0.6,0,0.9,0.3,0.7,0.9
		C28.5,58.8,28.1,58.5,27.9,58.6z"/>
</g>
<path fill="#A9A9A9" d="M249.3,24.8l1.1,0.1c7.7,0.6,14.2,6,16.2,13.5h3.3l-4,7.1l-4.1-7h3.6c-2.5-9.1-11.8-14.4-20.9-12
	s-14.4,11.8-12,20.9c1.1,4.1,3.7,7.6,7.2,9.8c3.7,2.5,8.1,3.3,12.4,2.5c4.3-0.8,8.2-3.2,10.7-6.8l1,0.7c-0.4,0.4-0.7,0.9-1,1.3
	c-2.2,2.6-5.1,4.5-8.3,5.5c-1.6,0.5-3.3,0.8-5,0.8h-1.2c-2-0.1-4-0.5-5.9-1.2c-3.7-1.4-6.9-4.1-8.9-7.5c-1.4-2.3-2.3-4.8-2.6-7.4
	c0-0.4-0.1-0.8-0.1-1.2V42c0.1-0.9,0.2-1.9,0.4-2.8c0.7-3.2,2.2-6.1,4.5-8.5c3.1-3.4,7.4-5.4,11.9-5.7l1.1-0.1L249.3,24.8
	L249.3,24.8z"/>
<path fill="#A9A9A9" d="M244,41.2V39c0-1.7,0.8-3.2,2.2-4.1c2.3-1.5,5.3-0.8,6.8,1.5c0.3,0.5,0.6,1.1,0.7,1.8
	c0.1,0.4,0.1,0.9,0.1,1.3v1.7h1.2c0.4,0,0.8,0.3,0.9,0.7c0,0.1,0,0.2,0,0.3c0,2.9,0,5.8,0.1,8.7c0.1,0.5-0.3,0.9-0.8,1H255L243,52
	c-0.5,0.1-0.9-0.3-1-0.8c0-0.1,0-0.1,0-0.2c0-2.9,0-5.8,0-8.7c0-0.3,0.1-0.6,0.3-0.8s0.4-0.2,0.6-0.2L244,41.2L244,41.2z
	 M254.7,42.4l-11.5,0.1v8.2l11.5-0.1C254.7,50.5,254.7,42.4,254.7,42.4z M252.6,41.2v-2.1c0-2-1.6-3.6-3.6-3.7
	c-1.9-0.1-3.5,1.3-3.7,3.2c-0.1,0.8,0,1.7,0,2.5L252.6,41.2L252.6,41.2z"/>
<path fill="#A9A9A9" d="M319.7,48.1c1.3-1.4,2.7-2.7,3.9-4c0.3-0.3,0.7-0.5,1.1-0.3c5,1.3,8.4,5.9,8.4,11v5.5c0,0.7-0.1,0.8-0.9,0.8
	h-25.1c-0.7,0-0.9-0.1-0.8-0.8c0-2.1-0.1-4.3,0.1-6.4c0.4-4.8,3.7-8.8,8.4-10c0.3-0.1,0.7,0,0.9,0.3L319.7,48.1z M307.4,60.1h24.8
	c0-2,0.1-4,0-5.9c-0.3-4.3-3.1-7.9-7.2-9.2c-0.3-0.1-0.7,0-0.9,0.2c-1.2,1.3-2.5,2.5-3.8,3.8c-0.5,0.5-0.6,0.5-1.1,0
	c-1.3-1.3-2.5-2.6-3.9-3.8c-0.2-0.2-0.4-0.2-0.6-0.2c-3.9,1.1-6.7,4.5-7.2,8.5c-0.2,2.1-0.1,4.3-0.1,6.5
	C307.4,60,307.4,60.1,307.4,60.1L307.4,60.1L307.4,60.1z"/>
<path fill="#A9A9A9" d="M311.4,34.2c0-5.1,3.5-8.9,7.9-9.2c3.3-0.1,6.4,1.8,7.9,4.8c1.4,3,1.1,6.5-0.6,9.3c-0.8,1.6-2.2,3-3.8,3.9
	c-2.3,1.3-5.2,1-7.2-0.7C313.1,40.3,311.6,37.3,311.4,34.2z M327.2,33.6c-0.1-0.5-0.1-1.1-0.3-1.7c-0.7-3.3-3.6-5.7-7-5.9
	c-3.4,0-6.4,2.4-7.1,5.8c-0.9,3.5,0.4,7.3,3.2,9.6c2.1,2,5.4,2,7.5,0C325.8,39.4,327.1,36.5,327.2,33.6z"/>
<path fill="#A9A9A9" d="M339.2,24.9c3.7,0.2,6.2,1.7,7.8,4.8s1.1,6.3-0.6,9.3c-0.9,1.7-2.4,3.1-4.1,4s-3.8,0.9-5.5,0
	c-0.3-0.1-0.5-0.3-0.4-0.6l0,0v-0.1c0.1-0.2,0.4-0.4,0.6-0.3h0.1c3.3,1.1,5.5,0.5,7.6-2.3c1.8-2.1,2.5-4.9,2.1-7.6
	c-0.6-4-4.3-6.8-8.3-6.2c-0.3,0-0.7,0.1-1,0.2l-0.2,0.1c-0.2,0.1-0.6,0-0.7-0.2l0,0v0c0-0.2,0.1-0.4,0.3-0.5h0.1
	C337.9,25.2,338.7,25.1,339.2,24.9z"/>
<path fill="#A9A9A9" d="M337,33.7c0.1-3.6-2.4-6.8-5.9-7.6c-1.1-0.2-2.3-0.2-3.5,0.1c-0.1,0-0.2,0.1-0.4,0.1c-0.2,0.1-0.5,0-0.6-0.3
	l0,0v0c-0.1-0.3,0.1-0.5,0.3-0.6l0,0h0.1c1-0.3,2-0.5,3-0.4c4.1,0.2,7.4,3.4,7.8,7.4c0.6,4.1-1.3,8.2-4.8,10.4
	c-1.8,1.3-4.2,1.4-6.2,0.4c-0.3-0.1-0.5-0.3-0.4-0.6v-0.1c0.1-0.2,0.4-0.4,0.6-0.3l0,0l0.1,0.1c2.7,1.3,5.3,0.2,7-1.7
	C335.9,38.7,336.9,36.3,337,33.7z"/>
<path fill="#A9A9A9" d="M342,60.1c-0.2-2.9,0.4-5.7-0.5-8.5c-1-3.3-3.6-5.8-6.9-6.7c-0.2,0-0.4,0-0.6,0.1c-0.4,0.3-0.7,0.7-1.1,1.1
	c-0.2,0.2-0.5,0.3-0.7,0.2s-0.3-0.5-0.2-0.7c0-0.1,0.1-0.1,0.2-0.2c0.5-0.5,1-1,1.5-1.5c0.2-0.2,0.4-0.2,0.7-0.2
	c4.9,1.1,8.4,5.3,8.6,10.3c0.1,2.1,0,4.2,0,6.4c0,0.6-0.1,0.7-0.7,0.7h-6.1c-0.4,0-0.7,0-0.7-0.5s0.4-0.5,0.7-0.5L342,60.1L342,60.1
	z"/>
<path fill="#A9A9A9" d="M352,60.1c-0.2-2.7,0.3-5.2-0.3-7.8c-0.8-3.6-3.5-6.5-7.1-7.5c-0.2,0-0.4,0-0.6,0.1c-0.4,0.3-0.7,0.7-1.1,1
	s-0.5,0.4-0.9,0.1c-0.2-0.2-0.2-0.5,0-0.7l0,0l0.1-0.1c0.5-0.5,0.9-0.9,1.4-1.4c0.2-0.2,0.5-0.3,0.8-0.2c5.1,1.2,8.6,5.8,8.6,11v5.5
	c0,0.7-0.1,0.8-0.8,0.8h-6c-0.1,0-0.2,0-0.2,0c-0.2-0.1-0.3-0.3-0.5-0.5c0.1-0.2,0.3-0.4,0.5-0.5c0.6,0,1.2,0,1.8,0L352,60.1
	L352,60.1L352,60.1z"/>
<g id="RKfHLO.tif">
	<path fill="#A9A9A9" d="M427.2,40.3v20.4c-0.2,0.3-0.6,0.5-0.9,0.4h-37.1c-0.4,0-0.7-0.1-0.9-0.4V40.3c0.1-0.2,0.3-0.4,0.5-0.5
		c1.5-1,3-2,4.4-2.9c0.2-0.1,0.3-0.4,0.3-0.6V25.9c0-0.8,0.2-1,0.9-1H421c0.8,0,0.9,0.2,0.9,1v10.3c0,0.3,0.1,0.5,0.3,0.6
		c1.5,1,3,2,4.4,2.9C426.9,39.9,427.1,40.1,427.2,40.3z M407.7,26.3h-12.5c-0.3,0-0.4,0-0.4,0.4v15.9c0,0.2,0.1,0.4,0.3,0.4
		l10.3,5.5c0.1,0.1,0.3,0.1,0.5,0c0.5-0.3,1-0.6,1.4-1c0.3-0.2,0.6-0.2,0.9,0c0.5,0.3,0.9,0.6,1.4,0.9c0.2,0.1,0.4,0.1,0.6,0
		c3.4-1.8,6.8-3.6,10.2-5.4c0.2-0.1,0.4-0.3,0.3-0.6c0-5.3,0-10.5,0-15.8c0-0.4-0.1-0.5-0.4-0.5C416.1,26.2,411.9,26.2,407.7,26.3
		L407.7,26.3L407.7,26.3z M424.3,59.8l-0.3-0.2l-16-10.7c-0.2-0.1-0.4-0.1-0.6,0l-16,10.6c-0.1,0-0.2,0.1-0.3,0.2L424.3,59.8
		L424.3,59.8z M425.9,41.5l-14.8,7.9l14.8,9.8V41.5L425.9,41.5z M389.6,59.2l14.8-9.8l-14.8-7.9V59.2L389.6,59.2L389.6,59.2z
		 M393.6,38.2l-2.3,1.5c0.6,0.1,1.3,0.1,1.9,0.1h0.2c0.1,0,0.2,0,0.2-0.1v-0.1C393.6,39.2,393.6,38.7,393.6,38.2L393.6,38.2
		L393.6,38.2z M422,38.2v0.5c-0.1,0.3-0.1,0.7,0.1,1c0.3,0.1,0.7,0.2,1.1,0.1h1.2c-0.7-0.6-1.4-1-2.1-1.5L422,38.2z M391.7,41.1
		L391.7,41.1l1.9,1.1v-0.9c0-0.1,0-0.2-0.1-0.2l0,0L391.7,41.1L391.7,41.1L391.7,41.1z M422,42.1l1.8-1V41h-1c-0.9,0-0.9,0-0.8,0.9
		C422,42,422,42.1,422,42.1L422,42.1L422,42.1z"/>
	<path fill="#A9A9A9" d="M407.9,31h-7.6c-0.2,0.1-0.4,0-0.5-0.2c0-0.1,0-0.2,0-0.2c0-0.7,0-0.7,0.7-0.7h15c0.4,0,0.5,0.1,0.5,0.5
		c0,0.7,0,0.7-0.7,0.7L407.9,31L407.9,31z"/>
	<path fill="#A9A9A9" d="M406.7,34.8h6.3c0.3,0,0.5,0,0.5,0.4c0,0.8,0,0.8-0.8,0.8h-12.4c-0.4,0-0.5-0.1-0.5-0.5
		c0-0.7,0-0.7,0.8-0.7H406.7L406.7,34.8z"/>
	<path fill="#A9A9A9" d="M404.8,39.9h4.5c0.3,0,0.5,0.1,0.4,0.4c0,0.8,0,0.8-0.8,0.8h-8.6c-0.4,0-0.5-0.1-0.5-0.5
		c0-0.7,0-0.7,0.8-0.7C400.6,39.9,404.8,39.9,404.8,39.9z"/>
</g>
<path fill="#FFFFFF" d="M113.7,108.9v2.9h2.3c0.8,0,0.9,0.2,0.9,0.9v3.1c0.1,0.3-0.1,0.7-0.4,0.8c-0.1,0-0.2,0-0.3,0h-18
	c-0.3,0.1-0.7-0.1-0.8-0.5c0-0.1,0-0.2,0-0.3v-3.2c-0.1-0.3,0.2-0.7,0.5-0.7c0.1,0,0.2,0,0.3,0h2.4V109h-9.4
	c-1.1,0.1-2.1-0.6-2.2-1.7c0-0.1,0-0.3,0-0.4V82.3c-0.1-1.1,0.7-2.1,1.8-2.2c0.1,0,0.3,0,0.4,0H123c1.1-0.2,2.2,0.6,2.3,1.8
	c0,0.2,0,0.3,0,0.5v24.2c0.1,1.1-0.7,2.1-1.8,2.2c0,0,0,0-0.1,0L113.7,108.9L113.7,108.9L113.7,108.9z M90,102.1h34.2V82.3
	c0-0.6-0.4-1-1-1h-32c-0.5-0.1-1.1,0.3-1.2,0.8c0,0.1,0,0.2,0,0.3V102.1z M90,103.3v3.2c-0.2,0.6,0.2,1.1,0.7,1.3
	c0.2,0.1,0.4,0.1,0.6,0H123c0.5,0.1,1.1-0.2,1.2-0.7c0-0.2,0-0.3,0-0.5v-3.3H90z M115.7,112.9H98.5v2.5h17.2V112.9L115.7,112.9z
	 M101.7,111.7h10.9v-2.9h-10.9V111.7L101.7,111.7L101.7,111.7z"/>
<path fill="#FFFFFF" d="M98,90.2h-5c-0.7,0-0.8-0.1-0.8-0.8v-4.5c-0.1-0.3,0.1-0.6,0.4-0.7c0.1,0,0.2,0,0.3,0h10.2
	c0.3-0.1,0.6,0.1,0.7,0.4c0,0.1,0,0.2,0,0.3v4.6c0.1,0.3-0.1,0.7-0.5,0.7c-0.1,0-0.2,0-0.3,0H98L98,90.2z M93.4,89h9.3v-3.7h-9.3V89
	z"/>
<path fill="#FFFFFF" d="M114.4,87.2"/>
<path fill="#FFFFFF" d="M113.9,98.1"/>
<path fill="#FFFFFF" d="M98,91.9h4.8c0.2,0,0.4,0,0.5,0.1c0.2,0.1,0.3,0.3,0.3,0.5c-0.1,0.2-0.2,0.4-0.4,0.5
	c-0.2,0.1-0.3,0.1-0.5,0.1h-9.8c-0.2,0-0.3,0-0.5-0.1s-0.3-0.3-0.3-0.5s0.1-0.4,0.3-0.5c0.2-0.1,0.4-0.1,0.5-0.1H98L98,91.9z"/>
<path fill="#FFFFFF" d="M98,96h-4.8c-0.2,0-0.3,0-0.5,0c-0.2-0.1-0.3-0.3-0.4-0.5c0-0.2,0.1-0.4,0.3-0.5c0.1-0.1,0.3-0.1,0.5-0.1h10
	c0.1,0,0.2,0,0.3,0c0.3,0,0.5,0.3,0.5,0.6l0,0l0,0c0,0.3-0.2,0.5-0.5,0.5H98L98,96z"/>
<path fill="#FFFFFF" d="M98,99.1h-5c-0.5,0-0.7-0.2-0.7-0.6S92.5,98,93,98h10.3c0.3,0,0.5,0.2,0.6,0.5v0.1c0,0.3-0.2,0.5-0.5,0.5
	l0,0H98L98,99.1z"/>
<path fill="#FFFFFF" d="M111.7,93.4c1.2-1,7.8-6.5,9-7.5l0.3-0.3c0.2-0.2,0.5-0.3,0.8-0.1l0.1,0.1c0.2,0.2,0.2,0.5,0,0.7l-0.1,0.1
	c-0.6,0.5-6.7,5.6-7.3,6.1l-2.3,2c-0.5,0.4-0.8,0.4-1.1-0.2l-1.3-2.1c-0.1-0.3,0-0.6,0.3-0.8c0.3-0.1,0.6,0,0.7,0.2
	C111,92.3,111.4,92.9,111.7,93.4z"/>
<path fill="#FFFFFF" d="M107,106.9c-0.9,0-1.6-0.8-1.6-1.7c0-0.9,0.8-1.6,1.7-1.6c0.9,0,1.6,0.8,1.6,1.7S107.9,106.9,107,106.9
	L107,106.9z M107,105.9h0.2c0.2-0.2,0.3-0.4,0.4-0.6s-0.1-0.5-0.3-0.5l0,0h-0.1c-0.2,0-0.5,0.1-0.5,0.4v0.1
	C106.7,105.5,106.8,105.7,107,105.9L107,105.9L107,105.9z"/>
<g id="_3zKbbJ.tif-2">
	<path fill="#FFFFFF" d="M190.6,116.6c-0.7-0.1-1.5-0.2-2.2-0.3c-0.8-0.1-1.6-0.4-2.3-0.8c-0.6-0.3-1-1-1-1.7V99.5
		c-0.1-0.9,0.4-1.7,1.2-2c0.9-0.4,1.9-0.7,2.9-0.8c2.3-0.3,4.7-0.2,7,0.3c0.6,0.1,1.2,0.4,1.7,0.7c0.4,0.2,0.7,0.6,0.9,1.1v15.7
		c-0.3,0.5-0.7,0.9-1.2,1.2c-0.5,0.2-1,0.4-1.6,0.6c-0.9,0.2-1.8,0.3-2.6,0.4L190.6,116.6L190.6,116.6L190.6,116.6z M192,100.3
		c1,0,2-0.1,3-0.3c0.8-0.1,1.6-0.4,2.3-0.8c0.3-0.2,0.3-0.3,0-0.5s-0.7-0.4-1.1-0.4c-2.5-0.7-5.1-0.7-7.7-0.2
		c-0.7,0.1-1.3,0.3-1.9,0.7c-0.3,0.2-0.3,0.3,0,0.5c0.3,0.1,0.5,0.3,0.8,0.4C188.9,100.1,190.4,100.3,192,100.3L192,100.3z
		 M191.9,102.8c1.7,0.1,3.4-0.2,5-0.8c0.5-0.1,0.8-0.5,0.8-1c0-0.1,0-0.1,0-0.2c0-0.2,0-0.3-0.3-0.2c-0.6,0.3-1.2,0.4-1.8,0.5
		c-2.9,0.6-6,0.4-8.9-0.5c-0.1,0-0.2-0.2-0.3,0.1c-0.2,0.5,0,1,0.5,1.2l0,0h0.2c0.2,0.1,0.4,0.2,0.6,0.2
		C189,102.6,190.4,102.8,191.9,102.8z M192,105.3c1.7,0,3.3-0.2,4.9-0.8c0.5-0.1,0.8-0.5,0.8-1c0-0.1,0-0.1,0-0.2
		c0-0.3-0.1-0.3-0.3-0.2c-0.4,0.2-0.7,0.3-1.1,0.4c-3.1,0.8-6.4,0.7-9.5-0.4c-0.1,0-0.2-0.2-0.3,0.1c-0.2,0.5,0,1,0.5,1.2l0,0
		l0.1,0.1c0.2,0.1,0.4,0.2,0.6,0.2C189.1,105.1,190.5,105.3,192,105.3L192,105.3L192,105.3z M186.5,105.6c-0.1,1,0,1.1,0.9,1.5
		l0.4,0.1c1.5,0.4,3.2,0.6,4.8,0.6c1.5,0,3.1-0.2,4.5-0.8c0.5-0.1,0.8-0.5,0.7-1c0-0.1-0.1-0.2-0.1-0.3
		C193.9,106.9,190,106.9,186.5,105.6L186.5,105.6L186.5,105.6z M186.5,108.2c-0.1,1,0,1.1,0.9,1.5l0.4,0.2c1.2,0.4,2.5,0.5,3.7,0.6
		c1.8,0.1,3.7-0.1,5.4-0.7c0.5-0.1,0.9-0.5,0.8-1c0-0.1-0.1-0.3-0.1-0.4C193.9,109.4,190,109.4,186.5,108.2L186.5,108.2L186.5,108.2
		z M186.5,110.6c-0.1,1-0.1,1.2,0.9,1.5l0.4,0.1c1.4,0.4,2.8,0.6,4.2,0.6c1.7,0.1,3.4-0.2,5-0.8c0.5-0.1,0.8-0.5,0.8-1
		c0-0.1,0-0.1,0-0.2c0-0.2,0-0.3-0.3-0.2c-2.2,0.8-4.5,1-6.7,0.8C189.2,111.5,187.8,111.2,186.5,110.6L186.5,110.6L186.5,110.6z
		 M186.5,113.1c-0.1,1-0.1,1.1,0.8,1.5l0.4,0.2c2,0.5,4.1,0.7,6.1,0.5c1-0.1,2-0.3,3-0.7c0.5-0.1,0.8-0.5,0.8-1c0-0.1,0-0.1,0-0.2
		c0-0.3-0.1-0.2-0.3-0.2c-1.5,0.6-3.1,0.9-4.7,0.8C190.5,114.2,188.4,113.9,186.5,113.1L186.5,113.1L186.5,113.1z"/>
	<path fill="#FFFFFF" d="M161.6,92.5c0.2-0.2,0.5-0.3,0.8-0.3h30.5c0.7,0,0.8,0.1,0.8,0.8v1.5c0.1,0.3-0.1,0.6-0.4,0.6
		c-0.3,0.1-0.6-0.1-0.6-0.4c0-0.1,0-0.1,0-0.2v-0.3c0-1,0-1-1-1h-28.5c-0.4,0-0.5,0.1-0.5,0.6v13c-0.1,0.2,0.1,0.4,0.3,0.5
		c0.1,0,0.1,0,0.2,0h19.7c0.2,0,0.3,0,0.5,0c0.3,0,0.5,0.2,0.5,0.5l0,0l0,0c0,0.3-0.2,0.5-0.5,0.5c-0.1,0-0.2,0-0.4,0h-20.6
		c-0.3,0-0.6-0.1-0.8-0.3V92.5L161.6,92.5L161.6,92.5z"/>
	<path fill="#FFFFFF" d="M171.6,80.2c1,0.5,2.1,0.9,3.2,1.4l11.4,4.8c0.1,0,0.3,0.1,0.4,0.2c0.2,0.1,0.3,0.4,0.1,0.7
		c-0.1,0.2-0.4,0.4-0.6,0.3c-0.2-0.1-0.3-0.1-0.4-0.2l-13.6-5.7c-0.4-0.2-0.6-0.2-0.7,0.2s-0.5,1-0.8,1.6c-0.1,0.3-0.5,0.4-0.7,0.3
		c-0.3-0.1-0.4-0.5-0.3-0.7c0.4-0.8,0.8-1.6,1.2-2.4c0.1-0.1,0.2-0.3,0.3-0.4L171.6,80.2L171.6,80.2z"/>
	<path fill="#FFFFFF" d="M164.7,84l2.9,0.7l21.6,4.9l0.2,0.1c0.3,0,0.5,0.3,0.5,0.6v0.1c-0.1,0.3-0.3,0.5-0.6,0.4l0,0h-0.1l-1.9-0.4
		l-21.9-5c-0.2-0.1-0.4,0-0.5,0.2c0,0,0,0.1,0,0.2c-0.3,1.5-0.6,3-1,4.5c0,0.2-0.1,0.4-0.2,0.5c-0.2,0.1-0.4,0.2-0.6,0.1
		c-0.2-0.1-0.3-0.4-0.3-0.6l0.8-3.5c0.1-0.7,0.3-1.4,0.4-2c0-0.3,0.3-0.5,0.6-0.5l0,0L164.7,84z"/>
	<path fill="#FFFFFF" d="M177,105.8c-3.1,0-5.6-2.4-5.6-5.5s2.4-5.6,5.5-5.6s5.6,2.4,5.6,5.4l0,0C182.5,103.2,180.1,105.7,177,105.8
		C177.1,105.8,177,105.8,177,105.8z M172.6,100.3c0,2.5,2.1,4.4,4.6,4.4s4.4-2.1,4.4-4.6c0-2.4-2-4.4-4.5-4.4
		C174.6,95.7,172.6,97.7,172.6,100.3C172.6,100.2,172.6,100.2,172.6,100.3L172.6,100.3z"/>
	<path fill="#FFFFFF" d="M169.6,105.8h-2.3c-0.3,0-0.6-0.1-0.8-0.3c-0.7-0.8-1.5-1.7-2.3-2.5c-0.2-0.2-0.2-0.4-0.2-0.6v-4.2
		c0-0.2,0.1-0.5,0.3-0.7l2.5-2.5c0.2-0.2,0.4-0.3,0.7-0.3h4.4c0.3-0.1,0.6,0.1,0.7,0.4v0.1c0,0.3-0.2,0.6-0.6,0.6h-4
		c-0.2,0-0.4,0.1-0.6,0.2c-0.7,0.7-1.3,1.3-2,1.9c-0.2,0.1-0.3,0.4-0.3,0.6v3.4c0,0.2,0.1,0.5,0.2,0.6c0.6,0.6,1.2,1.3,1.8,1.9
		c0.2,0.2,0.4,0.3,0.6,0.3h4.1c0.3,0,0.5,0.1,0.7,0.3c0.1,0.3,0,0.6-0.2,0.7c-0.1,0-0.2,0.1-0.3,0.1
		C171.2,105.8,170.4,105.8,169.6,105.8z"/>
	<path fill="#FFFFFF" d="M184.5,95.8h-2.3c-0.3,0.1-0.6-0.1-0.7-0.4v-0.1c0-0.3,0.3-0.6,0.6-0.6h4.8c0.3-0.1,0.6,0.1,0.7,0.4v0.1
		c0,0.3-0.3,0.6-0.6,0.5l0,0L184.5,95.8L184.5,95.8z"/>
	<path fill="#FFFFFF" d="M177.2,99.6c0.4,0,0.8,0.1,1.1,0.3c0.6,0.4,0.7,1.3,0.3,1.9c-0.1,0.2-0.3,0.4-0.6,0.5
		c-0.2,0-0.4,0.2-0.5,0.4c-0.1,0.2-0.3,0.4-0.5,0.3c-0.2,0-0.5-0.1-0.6-0.3c0-0.2-0.3-0.4-0.5-0.3l0,0c-0.1,0-0.2,0-0.3,0
		c-0.3,0-0.6-0.3-0.5-0.6l0,0l0,0c0-0.3,0.2-0.6,0.5-0.6l0,0h1.6c0.1,0,0.4,0,0.4-0.2s-0.2-0.2-0.4-0.2h-0.7c-0.7,0-1.2-0.5-1.4-1.2
		c-0.1-0.7,0.3-1.3,0.9-1.5c0.2,0,0.3-0.2,0.4-0.4c0.1-0.2,0.3-0.4,0.5-0.4s0.5,0.1,0.6,0.3c0,0.2,0.3,0.3,0.5,0.3l0,0h0.2
		c0.3,0,0.6,0.3,0.6,0.6c0,0.3-0.3,0.6-0.6,0.6l0,0h-1.4c-0.1,0-0.4,0-0.4,0.2s0.2,0.2,0.4,0.2S177,99.6,177.2,99.6z"/>
</g>
<g id="hNVzRz.tif-2">
	<path fill="#FFFFFF" d="M52,104.2l-4.7,4.7c-0.2,0.2-0.3,0.4,0,0.5c0.1,0.1,0.2,0.1,0.3,0.2c1.8,1.3,2.8,3.5,2.7,5.7
		c-0.1,1.3,0,1.3-1.3,1.3H20.7c-0.6,0-0.7-0.2-0.7-0.7c0-0.8,0-1.5,0.1-2.3c0.4-1.7,1.5-3.2,2.9-4.2c1.2-0.9,2.6-1.6,4-2.1
		c1.2-0.5,2.4-1.2,3.4-2c0.2-0.1,0.3-0.3,0.3-0.6c0.2-0.9-0.2-1.8-1-2.3c-1.8-1.3-2.9-3.2-3.3-5.4c0-0.3-0.2-0.6-0.5-0.7
		c-0.6-0.2-1.1-0.6-1.5-1.1c-0.8-0.8-0.8-2,0-2.8c0.3-0.3,0.7-0.5,1.2-0.6c0.3,0,0.6-0.3,0.6-0.6v-0.1c-0.1-2,0.2-4,1-5.9
		c1.2-3,4.1-4.9,7.2-4.9c1.2-0.1,2.4,0,3.6,0.4c3.2,0.9,4.9,3.2,5.7,6.3c0.4,1.4,0.5,2.8,0.4,4.3c-0.1,0.3,0.1,0.5,0.4,0.6h0.1
		c1.1,0.1,2,1,1.9,2.1c0,0.5-0.3,1-0.7,1.4c-0.4,0.5-0.9,0.8-1.5,1.1c-0.3,0.1-0.5,0.3-0.5,0.6c-0.5,2.5-1.9,4.6-4,6
		c-0.2,0.1-0.3,0.3-0.3,0.5c0,0,0,0,0,0.1c0,1.6-0.1,1.6,1.3,2.4c0.6,0.3,1.1,0.7,1.7,1c0.2,0.2,0.6,0.1,0.7-0.1l0,0l0,0
		c1.8-1.8,3.6-3.6,5.4-5.4c0.3-0.3,0.4-0.3,0.7,0c0.7,0.8,1.5,1.5,2.2,2.2C51.6,104,51.7,104.1,52,104.2L52,104.2L52,104.2z
		 M35.1,103.2c1.8,0.1,3.5-0.5,4.8-1.7c1.6-1.3,2.6-3.2,2.9-5.3c0-0.4,0.2-0.7,0.6-0.7l0,0l0,0c0.6-0.1,1.2-0.5,1.5-1
		c0.4-0.3,0.4-0.9,0.1-1.2c-0.1-0.2-0.3-0.3-0.5-0.3c-0.4-0.1-0.7-0.2-1.1-0.1c-0.3,0-0.5-0.1-0.4-0.4c0-0.3,0-0.7,0-1.1
		c0.1-0.2,0-0.4-0.2-0.4c-0.1,0-0.1,0-0.2,0c-3.1-0.3-6.1-1.2-8.9-2.7c-0.2-0.2-0.6-0.1-0.7,0.1c-1.3,1.2-2.9,2.1-4.6,2.7
		c-0.4,0-0.7,0.1-1,0.3c-0.1,0.4-0.2,0.7-0.1,1.1c0,0.2-0.1,0.4-0.3,0.4c-0.1,0-0.1,0-0.2,0c-0.4,0-0.8,0-1.1,0.1
		c-0.5,0.1-0.8,0.5-0.7,1c0,0.2,0.1,0.4,0.3,0.5c0.3,0.5,0.8,0.8,1.3,0.9c0.5,0,0.9,0.4,0.9,0.9c0,0.1,0,0.1,0,0.2v0.1
		C28,100.4,31.3,103.2,35.1,103.2L35.1,103.2L35.1,103.2z M42.1,108.1c-0.9-0.5-1.8-1-2.6-1.6c-0.2-0.2-0.6-0.3-0.8-0.1l0,0
		l-0.1,0.1c-1.9,1.8-5,1.8-6.9,0c-0.2-0.2-0.5-0.2-0.7,0l0,0l0,0c-1.2,0.9-2.4,1.6-3.8,2.1c-1.5,0.5-2.8,1.3-4,2.3
		c-1.2,0.9-1.9,2.4-2,3.9c0,0.7,0,0.7,0.7,0.7h26.8c0.1,0,0.3-0.1,0.3-0.2v-0.1c0.1-1-0.1-1.9-0.6-2.8c-0.5-0.7-1-1.4-1.7-1.9
		c-0.6-0.5-0.6-0.5-1.1,0.1c-1.3,1.7-3.2,2.8-5.3,3.2c-0.4,0.2-0.9,0.3-1.4,0.4c0.2-0.7,0.5-1.4,0.7-2.1c0.3-1.5,1.1-2.9,2.3-3.8
		C42,108.2,42,108.2,42.1,108.1L42.1,108.1z M42.6,89.8C43,90,43,89.7,43,89.3c-0.1-1.3-0.5-2.5-1-3.7c-0.8-1.9-2.5-3.4-4.5-3.8
		c-1.1-0.3-2.3-0.4-3.4-0.2c-2.4,0.1-4.5,1.5-5.6,3.6c-0.7,1.4-1.1,2.9-1.2,4.5c0,0.5,0.1,0.5,0.5,0.4c1.9-0.6,3.6-1.6,4.9-3.1
		c0.2-0.2,0.5-0.3,0.8-0.1l0,0l0,0C36.3,88.5,39.4,89.5,42.6,89.8L42.6,89.8z M40.9,112.4c1.1-0.2,2.1-0.7,2.9-1.5
		c1.8-2,3.8-3.8,5.7-5.7c0.4-0.2,0.7-0.6,0.9-1c-0.2-0.4-0.5-0.7-0.8-1s-0.5-0.3-0.8,0c-2.1,2.1-4.1,4.2-6.2,6.2
		C41.6,110.2,41.1,111.2,40.9,112.4L40.9,112.4z M32,104.5c0,0.3,0,0.6,0.2,0.8c1.5,1.6,3.9,1.8,5.6,0.4c0.5-0.3,0.7-0.8,0.7-1.4
		c0-0.4-0.1-0.5-0.5-0.4c-1.7,0.6-3.6,0.6-5.4,0.1C31.9,103.8,31.9,103.8,32,104.5L32,104.5L32,104.5z"/>
	<path fill="#FFFFFF" d="M33.6,113.9h-3.4c-0.5,0-0.4-0.3-0.4-0.6c0-0.3,0-0.5,0.4-0.5H37c0.5,0,0.4,0.3,0.4,0.6
		c0,0.3,0,0.6-0.4,0.6C35.9,113.9,34.7,113.9,33.6,113.9z"/>
	<path fill="#FFFFFF" d="M34.6,111.6h-2.5c-0.4,0-0.4-0.2-0.4-0.4s-0.2-0.7,0.4-0.7h5c0.6,0,0.3,0.4,0.4,0.7c0,0.3,0,0.5-0.4,0.4
		C36.2,111.6,35.4,111.6,34.6,111.6z"/>
	<path fill="#FFFFFF" d="M27.9,113.9c-0.8,0-0.8,0-0.8-0.7c-0.1-0.2,0-0.4,0.2-0.5c0.1,0,0.2,0,0.3,0H28c0.6,0,0.9,0.3,0.7,0.9
		C28.5,114.1,28.1,113.8,27.9,113.9z"/>
</g>
<path fill="#FFFFFF" d="M249.3,80.1l1.1,0.1c7.7,0.6,14.3,6.1,16.2,13.6h3.3l-4,7.1l-4.1-7h3.6c-2.5-9.1-11.8-14.4-20.9-12
	c-9.1,2.5-14.4,11.8-12,20.9c1.1,4.1,3.7,7.6,7.2,9.8c3.7,2.5,8.1,3.3,12.4,2.5c4.3-0.8,8.2-3.2,10.7-6.8l1,0.7
	c-0.4,0.4-0.7,0.9-1,1.3c-2.2,2.6-5.1,4.5-8.3,5.5c-1.6,0.5-3.3,0.8-5,0.8h-1.2c-2-0.1-4-0.5-5.9-1.2c-3.7-1.4-6.9-4.1-8.9-7.5
	c-1.4-2.3-2.3-4.8-2.6-7.5c0-0.4-0.1-0.8-0.1-1.2v-1.9c0.1-0.9,0.2-1.9,0.4-2.8c0.7-3.2,2.2-6.1,4.5-8.5c3.1-3.4,7.4-5.4,11.9-5.7
	l1.1-0.1h0.6V80.1z"/>
<path fill="#FFFFFF" d="M244,96.6v-2.2c0-1.7,0.8-3.2,2.2-4.1c2.3-1.5,5.3-0.8,6.8,1.5c0.3,0.5,0.6,1.1,0.7,1.8
	c0.1,0.4,0.1,0.9,0.1,1.3v1.7h1.2c0.4,0,0.8,0.3,0.9,0.7c0,0.1,0,0.2,0,0.3c0,2.9,0,5.8,0.1,8.7c0.1,0.5-0.3,0.9-0.8,1H255l-12,0.1
	c-0.5,0.1-0.9-0.3-1-0.8c0-0.1,0-0.1,0-0.2c0-2.9,0-5.8,0-8.7c0-0.3,0.1-0.6,0.3-0.8c0.2-0.2,0.4-0.2,0.6-0.2L244,96.6L244,96.6z
	 M254.7,97.8l-11.5,0.1v8.1l11.5-0.1V97.8z M252.6,96.6v-2.1c0-2-1.6-3.6-3.5-3.6c-1.9-0.1-3.5,1.3-3.7,3.2c-0.1,0.8,0,1.7,0,2.5
	H252.6L252.6,96.6z"/>
<path fill="#FFFFFF" d="M319.7,103.5c1.3-1.3,2.7-2.7,3.9-4c0.3-0.3,0.7-0.5,1.1-0.3c5,1.3,8.4,5.9,8.4,11v5.5
	c0,0.7-0.1,0.8-0.9,0.8h-25.1c-0.7,0-0.9-0.1-0.8-0.8c0-2.1-0.1-4.3,0.1-6.4c0.4-4.8,3.7-8.8,8.4-10c0.3-0.1,0.7,0,0.9,0.3
	L319.7,103.5z M307.4,115.5h24.8c0-2,0.1-4,0-5.9c-0.3-4.3-3.1-7.9-7.2-9.2c-0.3-0.1-0.7,0-0.9,0.2c-1.2,1.3-2.5,2.5-3.8,3.8
	c-0.5,0.5-0.6,0.5-1.1,0c-1.3-1.3-2.5-2.6-3.9-3.8c-0.2-0.2-0.4-0.2-0.6-0.2c-3.9,1.1-6.7,4.5-7.2,8.5
	C307.3,111,307.4,113.2,307.4,115.5L307.4,115.5L307.4,115.5L307.4,115.5z"/>
<path fill="#FFFFFF" d="M311.4,89.5c0-5.1,3.5-8.9,7.9-9.2c3.3-0.1,6.4,1.8,7.9,4.8c1.4,3,1.1,6.5-0.6,9.3c-0.8,1.6-2.2,3-3.8,3.9
	c-2.3,1.3-5.2,1-7.2-0.7C313.1,95.6,311.6,92.7,311.4,89.5z M327.2,88.9c-0.1-0.5-0.1-1.1-0.3-1.7c-0.7-3.3-3.6-5.7-7-5.9
	c-3.4,0-6.4,2.4-7.1,5.8c-0.9,3.5,0.4,7.3,3.2,9.5c2.1,2,5.4,2,7.5,0C325.8,94.7,327.1,91.9,327.2,88.9z"/>
<path fill="#FFFFFF" d="M339.2,80.3c3.7,0.2,6.2,1.7,7.8,4.8s1.1,6.3-0.6,9.3c-0.9,1.8-2.4,3.2-4.1,4.1s-3.8,0.9-5.5,0
	c-0.3-0.1-0.5-0.3-0.4-0.6l0,0v-0.1c0.1-0.2,0.4-0.4,0.6-0.3h0.1c3.3,1.1,5.5,0.4,7.6-2.3c1.8-2.1,2.5-4.9,2.1-7.6
	c-0.6-4-4.3-6.8-8.3-6.2c-0.3,0-0.7,0.1-1,0.2l-0.2,0.1c-0.2,0.1-0.6,0-0.7-0.2l0,0v-0.1c-0.1-0.2,0-0.5,0.3-0.6h0.1L339.2,80.3z"/>
<path fill="#FFFFFF" d="M337,89.1c0.1-3.6-2.4-6.8-5.9-7.6c-1.1-0.2-2.3-0.2-3.5,0.1c-0.1,0-0.2,0.1-0.4,0.1c-0.2,0.1-0.5,0-0.6-0.3
	l0,0v-0.1c-0.1-0.3,0.1-0.5,0.3-0.6l0,0h0.1c1-0.3,2-0.5,3-0.4c4,0.3,7.3,3.3,7.8,7.4c0.6,4.1-1.3,8.2-4.8,10.3
	c-1.8,1.3-4.2,1.4-6.2,0.4c-0.3-0.1-0.5-0.3-0.4-0.6v-0.1c0.1-0.2,0.4-0.4,0.6-0.3l0,0l0.1,0.1c2.7,1.3,5.3,0.2,7-1.7
	C335.9,94,336.9,91.6,337,89.1z"/>
<path fill="#FFFFFF" d="M342,115.5c-0.2-2.9,0.4-5.7-0.5-8.5c-1-3.3-3.6-5.8-6.9-6.7c-0.2,0-0.4,0-0.6,0.2c-0.4,0.3-0.7,0.7-1.1,1.1
	c-0.2,0.2-0.5,0.3-0.7,0.2s-0.3-0.5-0.2-0.7c0-0.1,0.1-0.1,0.2-0.2c0.5-0.5,1-1,1.5-1.4c0.2-0.2,0.4-0.2,0.7-0.2
	c4.8,1.1,8.4,5.3,8.6,10.2c0.1,2.1,0,4.2,0,6.4c0,0.6-0.1,0.7-0.7,0.7h-6.1c-0.4,0-0.7,0-0.7-0.5s0.4-0.5,0.7-0.5L342,115.5
	L342,115.5z"/>
<path fill="#FFFFFF" d="M352,115.5c-0.2-2.7,0.3-5.2-0.3-7.8c-0.8-3.6-3.5-6.5-7.1-7.5c-0.2,0-0.4,0-0.6,0.1
	c-0.4,0.3-0.7,0.7-1.1,1.1s-0.5,0.4-0.9,0.1c-0.2-0.2-0.2-0.5,0-0.7l0,0l0.1-0.1c0.5-0.5,0.9-0.9,1.4-1.4c0.2-0.2,0.5-0.3,0.8-0.2
	c5.1,1.2,8.6,5.8,8.6,11v5.5c0,0.7-0.1,0.8-0.8,0.8h-6c-0.1,0-0.2,0-0.2,0c-0.2-0.1-0.3-0.3-0.5-0.5c0.1-0.2,0.3-0.4,0.5-0.5
	c0.6,0,1.2,0,1.8,0L352,115.5L352,115.5L352,115.5z"/>
<g id="RKfHLO.tif-2">
	<path fill="#FFFFFF" d="M427.2,95.6V116c-0.2,0.3-0.6,0.5-0.9,0.4h-37.1c-0.4,0-0.7-0.1-0.9-0.4V95.6c0.1-0.2,0.3-0.4,0.5-0.5
		c1.5-1,3-2,4.4-2.9c0.2-0.1,0.3-0.4,0.3-0.6V81.3c0-0.8,0.2-1,0.9-1H421c0.8,0,0.9,0.2,0.9,1v10.3c0,0.3,0.1,0.5,0.3,0.6
		c1.5,1,3,2,4.4,2.9C426.9,95.2,427.1,95.4,427.2,95.6z M407.7,81.6h-12.5c-0.3,0-0.4,0-0.4,0.4v15.9c0,0.2,0.1,0.4,0.3,0.4
		l10.3,5.4c0.1,0.1,0.3,0.1,0.5,0c0.5-0.3,1-0.6,1.4-1c0.3-0.2,0.6-0.2,0.9,0c0.5,0.3,0.9,0.6,1.4,0.9c0.2,0.1,0.4,0.1,0.6,0
		c3.4-1.8,6.8-3.6,10.2-5.4c0.2-0.1,0.4-0.3,0.3-0.6c0-5.3,0-10.5,0-15.8c0-0.3-0.1-0.4-0.4-0.4C416.1,81.5,411.9,81.5,407.7,81.6
		L407.7,81.6L407.7,81.6z M424.3,115.1l-0.3-0.2l-16-10.6c-0.2-0.1-0.4-0.1-0.6,0l-16,10.6c-0.1,0-0.2,0.1-0.3,0.2H424.3
		L424.3,115.1z M425.9,96.9l-14.8,7.9l14.8,9.8V96.9L425.9,96.9z M389.6,114.6l14.8-9.8l-14.8-7.9V114.6L389.6,114.6L389.6,114.6z
		 M393.6,93.6l-2.3,1.5c0.6,0.1,1.3,0.1,1.9,0.1h0.2c0.1,0,0.2,0,0.2-0.1V95C393.6,94.5,393.6,94,393.6,93.6L393.6,93.6L393.6,93.6z
		 M422,93.6V94c-0.1,0.3-0.1,0.7,0.1,1c0.3,0.1,0.7,0.2,1.1,0.1h1.2c-0.7-0.6-1.4-1-2.1-1.5H422z M391.7,96.4L391.7,96.4l1.9,1.1
		v-0.8c0-0.1,0-0.2-0.1-0.2l0,0L391.7,96.4L391.7,96.4L391.7,96.4z M422,97.4l1.8-1v-0.1h-1c-0.9,0-0.9,0-0.8,0.9
		C421.9,97.3,421.9,97.4,422,97.4L422,97.4L422,97.4z"/>
	<path fill="#FFFFFF" d="M407.9,86.4h-7.6c-0.2,0.1-0.4,0-0.5-0.2c0-0.1,0-0.2,0-0.2c0-0.7,0-0.7,0.7-0.7h15c0.4,0,0.5,0.1,0.5,0.5
		c0,0.7,0,0.7-0.7,0.7L407.9,86.4L407.9,86.4z"/>
	<path fill="#FFFFFF" d="M406.7,90.2h6.3c0.3,0,0.5,0.1,0.5,0.4c0,0.8,0,0.8-0.8,0.8h-12.4c-0.4,0-0.5-0.1-0.5-0.5
		c0-0.7,0-0.7,0.8-0.7L406.7,90.2L406.7,90.2z"/>
	<path fill="#FFFFFF" d="M404.8,95.3h4.5c0.3,0,0.5,0.1,0.4,0.4c0,0.8,0,0.8-0.8,0.8h-8.6c-0.4,0-0.5-0.1-0.5-0.5
		c0-0.7,0-0.7,0.8-0.7C400.6,95.3,404.8,95.3,404.8,95.3z"/>
</g>
<path fill="#A9A9A9" d="M480,30.7c0,0.4-0.3,0.7-0.7,0.7s-0.7-0.3-0.7-0.7c0-0.4,0.3-0.7,0.7-0.7S480,30.3,480,30.7L480,30.7z"/>
<path fill="#A9A9A9" d="M487.9,38.7c0-3.6-2.2-6.8-5.6-8.1c-0.4-0.1-0.8,0-0.9,0.4s0,0.8,0.4,0.9c3.7,1.4,5.6,5.6,4.2,9.4
	c-1.4,3.7-5.6,5.6-9.4,4.2s-5.6-5.6-4.2-9.4c0.7-1.9,2.3-3.4,4.2-4.2c0.4-0.1,0.6-0.6,0.4-0.9c-0.1-0.4-0.6-0.6-0.9-0.4l0,0
	c-4.5,1.7-6.7,6.7-5,11.2s6.7,6.7,11.2,5C485.7,45.5,487.9,42.3,487.9,38.7z"/>
<path fill="#A9A9A9" d="M489.4,46.8l0.6-0.2c1.2-0.3,1.8-1.5,1.5-2.6l-0.4-1.8c-0.1-0.2,0-0.5,0.2-0.7l1.3-1.3
	c0.8-0.8,0.8-2.2,0-3.1l0,0l-1.3-1.3c-0.2-0.2-0.2-0.4-0.2-0.7l0.5-1.8c0.3-1.2-0.4-2.3-1.5-2.7l0,0l-1.8-0.5
	c-0.2-0.1-0.4-0.3-0.5-0.5l-0.5-1.8c-0.3-1.2-1.5-1.8-2.6-1.5l-1.8,0.5c-0.3,0.1-0.6,0-0.8-0.2l-1.3-1.3c-0.8-0.8-2.2-0.8-3.1,0l0,0
	l-1.3,1.4c-0.2,0.2-0.4,0.2-0.7,0.2l-1.8-0.5c-1.2-0.3-2.3,0.4-2.7,1.5l-0.5,1.8c-0.1,0.2-0.3,0.4-0.5,0.5l-1.8,0.5
	c-1.1,0.3-1.8,1.5-1.5,2.6l0.5,1.8c0.1,0.2,0,0.5-0.2,0.7l-1.3,1.3c-0.8,0.8-0.8,2.2,0,3.1l0,0l1.3,1.3c0.2,0.2,0.3,0.4,0.2,0.7
	L467,44c-0.3,1.2,0.4,2.3,1.5,2.7l0,0l0.5,0.1l-6,10.4c-0.2,0.3-0.1,0.8,0.2,1c0.1,0.1,0.3,0.1,0.5,0.1l4-0.6l1.5,3.8
	c0.1,0.3,0.3,0.4,0.6,0.5h0.1c0.3,0,0.5-0.1,0.6-0.4l6.1-10.5l1,1c0.8,0.8,2.2,0.8,3.1,0l1-1l6.1,10.5c0.1,0.2,0.4,0.4,0.6,0.4l0,0
	c0.3,0,0.5-0.2,0.6-0.5l1.5-3.8l4,0.6c0.4,0.1,0.8-0.2,0.8-0.6c0-0.2,0-0.3-0.1-0.5L489.4,46.8z M470.2,59.5l-1.1-2.9
	c-0.1-0.3-0.4-0.5-0.8-0.5l-3.1,0.5l5.4-9.4c0.1,0.1,0.2,0.2,0.3,0.4l0.5,1.8c0.3,1.2,1.5,1.8,2.7,1.5l1.3-0.4L470.2,59.5z
	 M479.8,50.9c-0.3,0.3-0.7,0.3-1,0l-1.3-1.3c-0.5-0.5-1.3-0.8-2.1-0.5l-1.8,0.5c-0.4,0.1-0.8-0.1-0.9-0.5l0,0l-0.5-1.8
	c-0.2-0.7-0.8-1.3-1.5-1.5l-1.8-0.5c-0.4-0.1-0.6-0.5-0.5-0.9l0.5-1.8c0.2-0.7,0-1.5-0.6-2.1l-1.3-1.3c-0.3-0.3-0.3-0.7,0-1l1.3-1.3
	c0.5-0.5,0.8-1.3,0.5-2.1l-0.5-1.8c-0.1-0.4,0.1-0.8,0.5-0.9l0,0l1.8-0.5c0.7-0.2,1.3-0.8,1.5-1.5l0.5-1.8c0.1-0.4,0.5-0.6,0.9-0.5
	l0,0l1.8,0.5c0.7,0.2,1.5,0,2.1-0.6l1.3-1.3c0.3-0.3,0.7-0.3,1,0l1.3,1.3c0.5,0.5,1.3,0.8,2.1,0.6l1.8-0.5c0.4-0.1,0.8,0.1,0.9,0.5
	l0.5,1.8c0.2,0.7,0.8,1.3,1.5,1.5l1.8,0.5c0.4,0.1,0.6,0.5,0.5,0.9l0,0l-0.5,1.7c-0.2,0.7,0,1.5,0.5,2.1l1.3,1.3
	c0.3,0.3,0.3,0.7,0,1l-1.3,1.3c-0.5,0.5-0.8,1.3-0.6,2.1l0.5,1.8c0.1,0.4-0.1,0.8-0.5,0.9l-1.8,0.5c-0.7,0.2-1.3,0.8-1.5,1.5
	l-0.5,1.8c-0.1,0.4-0.5,0.6-0.9,0.5l0,0L483,49c-0.7-0.2-1.5,0-2.1,0.5L479.8,50.9z M490.2,56.1c-0.3-0.1-0.7,0.1-0.8,0.5l-1.1,2.9
	l-5.1-8.9l1.3,0.4c1.2,0.3,2.3-0.4,2.7-1.5l0.5-1.8c0-0.2,0.1-0.3,0.3-0.4l5.4,9.4L490.2,56.1z"/>
<path fill="#A9A9A9" d="M474.4,37.1c-0.1,0.3,0,0.5,0.2,0.7l1.8,1.8l-0.4,2.5c-0.1,0.4,0.2,0.8,0.6,0.8c0.2,0,0.3,0,0.5-0.1l2.2-1.2
	l2.2,1.2c0.4,0.2,0.8,0.1,1-0.3c0.1-0.1,0.1-0.3,0.1-0.5l-0.4-2.5l1.8-1.8c0.3-0.3,0.3-0.7,0-1c-0.1-0.1-0.3-0.2-0.4-0.2l-2.4-0.3
	l-1.1-2.2c-0.2-0.4-0.6-0.5-1-0.3c-0.1,0.1-0.3,0.2-0.3,0.3l-1.1,2.2l-2.5,0.4C474.8,36.7,474.5,36.8,474.4,37.1z M478,37.6
	c0.2,0,0.4-0.2,0.5-0.4l0.6-1.3l0.6,1.3c0.1,0.2,0.3,0.4,0.5,0.4l1.4,0.2l-1,1c-0.2,0.2-0.3,0.4-0.2,0.6l0.2,1.4l-1.3-0.7
	c-0.2-0.1-0.5-0.1-0.7,0l-1.3,0.7l0.2-1.4c0-0.2,0-0.5-0.2-0.6l-1-1L478,37.6z"/>
<path fill="#A9A9A9" d="M480,30.7c0,0.4-0.3,0.7-0.7,0.7s-0.7-0.3-0.7-0.7c0-0.4,0.3-0.7,0.7-0.7S480,30.3,480,30.7L480,30.7z"/>
<path fill="#A9A9A9" d="M487.9,38.7c0-3.6-2.2-6.8-5.6-8.1c-0.4-0.1-0.8,0-0.9,0.4s0,0.8,0.4,0.9c3.7,1.4,5.6,5.6,4.2,9.4
	c-1.4,3.7-5.6,5.6-9.4,4.2s-5.6-5.6-4.2-9.4c0.7-1.9,2.3-3.4,4.2-4.2c0.4-0.1,0.6-0.6,0.4-0.9c-0.1-0.4-0.6-0.6-0.9-0.4l0,0
	c-4.5,1.7-6.7,6.7-5,11.2s6.7,6.7,11.2,5C485.7,45.5,487.9,42.3,487.9,38.7z"/>
<path fill="#A9A9A9" d="M489.4,46.8l0.6-0.2c1.2-0.3,1.8-1.5,1.5-2.6l-0.4-1.8c-0.1-0.2,0-0.5,0.2-0.7l1.3-1.3
	c0.8-0.8,0.8-2.2,0-3.1l0,0l-1.3-1.3c-0.2-0.2-0.2-0.4-0.2-0.7l0.5-1.8c0.3-1.2-0.4-2.3-1.5-2.7l0,0l-1.8-0.5
	c-0.2-0.1-0.4-0.3-0.5-0.5l-0.5-1.8c-0.3-1.2-1.5-1.8-2.6-1.5l-1.8,0.5c-0.3,0.1-0.6,0-0.8-0.2l-1.3-1.3c-0.8-0.8-2.2-0.8-3.1,0l0,0
	l-1.3,1.4c-0.2,0.2-0.4,0.2-0.7,0.2l-1.8-0.5c-1.2-0.3-2.3,0.4-2.7,1.5l-0.5,1.8c-0.1,0.2-0.3,0.4-0.5,0.5l-1.8,0.5
	c-1.1,0.3-1.8,1.5-1.5,2.6l0.5,1.8c0.1,0.2,0,0.5-0.2,0.7l-1.3,1.3c-0.8,0.8-0.8,2.2,0,3.1l0,0l1.3,1.3c0.2,0.2,0.3,0.4,0.2,0.7
	L467,44c-0.3,1.2,0.4,2.3,1.5,2.7l0,0l0.5,0.1l-6,10.4c-0.2,0.3-0.1,0.8,0.2,1c0.1,0.1,0.3,0.1,0.5,0.1l4-0.6l1.5,3.8
	c0.1,0.3,0.3,0.4,0.6,0.5h0.1c0.3,0,0.5-0.1,0.6-0.4l6.1-10.5l1,1c0.8,0.8,2.2,0.8,3.1,0l1-1l6.1,10.5c0.1,0.2,0.4,0.4,0.6,0.4l0,0
	c0.3,0,0.5-0.2,0.6-0.5l1.5-3.8l4,0.6c0.4,0.1,0.8-0.2,0.8-0.6c0-0.2,0-0.3-0.1-0.5L489.4,46.8z M470.2,59.5l-1.1-2.9
	c-0.1-0.3-0.4-0.5-0.8-0.5l-3.1,0.5l5.4-9.4c0.1,0.1,0.2,0.2,0.3,0.4l0.5,1.8c0.3,1.2,1.5,1.8,2.7,1.5l1.3-0.4L470.2,59.5z
	 M479.8,50.9c-0.3,0.3-0.7,0.3-1,0l-1.3-1.3c-0.5-0.5-1.3-0.8-2.1-0.5l-1.8,0.5c-0.4,0.1-0.8-0.1-0.9-0.5l0,0l-0.5-1.8
	c-0.2-0.7-0.8-1.3-1.5-1.5l-1.8-0.5c-0.4-0.1-0.6-0.5-0.5-0.9l0.5-1.8c0.2-0.7,0-1.5-0.6-2.1l-1.3-1.3c-0.3-0.3-0.3-0.7,0-1l1.3-1.3
	c0.5-0.5,0.8-1.3,0.5-2.1l-0.5-1.8c-0.1-0.4,0.1-0.8,0.5-0.9l0,0l1.8-0.5c0.7-0.2,1.3-0.8,1.5-1.5l0.5-1.8c0.1-0.4,0.5-0.6,0.9-0.5
	l0,0l1.8,0.5c0.7,0.2,1.5,0,2.1-0.6l1.3-1.3c0.3-0.3,0.7-0.3,1,0l1.3,1.3c0.5,0.5,1.3,0.8,2.1,0.6l1.8-0.5c0.4-0.1,0.8,0.1,0.9,0.5
	l0.5,1.8c0.2,0.7,0.8,1.3,1.5,1.5l1.8,0.5c0.4,0.1,0.6,0.5,0.5,0.9l0,0l-0.5,1.7c-0.2,0.7,0,1.5,0.5,2.1l1.3,1.3
	c0.3,0.3,0.3,0.7,0,1l-1.3,1.3c-0.5,0.5-0.8,1.3-0.6,2.1l0.5,1.8c0.1,0.4-0.1,0.8-0.5,0.9l-1.8,0.5c-0.7,0.2-1.3,0.8-1.5,1.5
	l-0.5,1.8c-0.1,0.4-0.5,0.6-0.9,0.5l0,0L483,49c-0.7-0.2-1.5,0-2.1,0.5L479.8,50.9z M490.2,56.1c-0.3-0.1-0.7,0.1-0.8,0.5l-1.1,2.9
	l-5.1-8.9l1.3,0.4c1.2,0.3,2.3-0.4,2.7-1.5l0.5-1.8c0-0.2,0.1-0.3,0.3-0.4l5.4,9.4L490.2,56.1z"/>
<path fill="#A9A9A9" d="M474.4,37.1c-0.1,0.3,0,0.5,0.2,0.7l1.8,1.8l-0.4,2.5c-0.1,0.4,0.2,0.8,0.6,0.8c0.2,0,0.3,0,0.5-0.1l2.2-1.2
	l2.2,1.2c0.4,0.2,0.8,0.1,1-0.3c0.1-0.1,0.1-0.3,0.1-0.5l-0.4-2.5l1.8-1.8c0.3-0.3,0.3-0.7,0-1c-0.1-0.1-0.3-0.2-0.4-0.2l-2.4-0.3
	l-1.1-2.2c-0.2-0.4-0.6-0.5-1-0.3c-0.1,0.1-0.3,0.2-0.3,0.3l-1.1,2.2l-2.5,0.4C474.8,36.7,474.5,36.8,474.4,37.1z M478,37.6
	c0.2,0,0.4-0.2,0.5-0.4l0.6-1.3l0.6,1.3c0.1,0.2,0.3,0.4,0.5,0.4l1.4,0.2l-1,1c-0.2,0.2-0.3,0.4-0.2,0.6l0.2,1.4l-1.3-0.7
	c-0.2-0.1-0.5-0.1-0.7,0l-1.3,0.7l0.2-1.4c0-0.2,0-0.5-0.2-0.6l-1-1L478,37.6z"/>
<path fill="#FFFFFF" d="M479.5,85.5c0,0.4-0.3,0.7-0.7,0.7c-0.4,0-0.7-0.3-0.7-0.7c0-0.4,0.3-0.7,0.7-0.7S479.5,85.1,479.5,85.5
	L479.5,85.5z"/>
<path fill="#FFFFFF" d="M487.5,93.4c0-3.6-2.2-6.8-5.6-8.1c-0.4-0.1-0.8,0-0.9,0.4s0,0.8,0.4,0.9c3.7,1.4,5.6,5.6,4.2,9.4
	c-1.4,3.7-5.6,5.6-9.4,4.2c-3.7-1.4-5.6-5.6-4.2-9.4c0.7-1.9,2.3-3.4,4.2-4.2c0.4-0.1,0.6-0.6,0.4-0.9c-0.1-0.4-0.6-0.6-0.9-0.4l0,0
	c-4.5,1.7-6.7,6.7-5,11.2s6.7,6.7,11.2,5C485.2,100.3,487.5,97,487.5,93.4z"/>
<path fill="#FFFFFF" d="M488.9,101.6l0.6-0.2c1.1-0.3,1.8-1.5,1.6-2.6l-0.5-1.8c-0.1-0.2,0-0.5,0.2-0.7L492,95
	c0.8-0.8,0.8-2.2,0-3.1l0,0l-1.3-1.3c-0.2-0.2-0.2-0.4-0.2-0.7l0.5-1.8c0.3-1.2-0.4-2.3-1.5-2.7l0,0l-1.8-0.5
	c-0.2-0.1-0.4-0.3-0.5-0.5l-0.5-1.7c-0.3-1.2-1.5-1.9-2.6-1.6c0,0,0,0-0.1,0l-1.8,0.5c-0.2,0.1-0.5,0-0.7-0.2l-1.3-1.3
	c-0.8-0.8-2.2-0.8-3.1,0l0,0l-1.3,1.3c-0.2,0.2-0.4,0.2-0.7,0.2l-1.8-0.5c-1.2-0.3-2.3,0.4-2.6,1.6l-0.5,1.8
	c-0.1,0.2-0.3,0.4-0.5,0.5l-1.8,0.5c-1.2,0.3-1.8,1.5-1.5,2.7l0,0l0.5,1.7c0.1,0.2,0,0.5-0.2,0.7l-1.3,1.3c-0.8,0.8-0.8,2.2,0,3.1
	l0,0l1.3,1.3c0.2,0.2,0.3,0.4,0.2,0.7l-0.5,1.8c-0.3,1.1,0.4,2.3,1.5,2.6l0.6,0.2l-6,10.4c-0.2,0.3-0.1,0.8,0.2,1
	c0.1,0.1,0.3,0.1,0.5,0.1l4-0.6l1.5,3.8c0.1,0.3,0.3,0.4,0.6,0.5l0,0c0.3,0,0.5-0.1,0.6-0.4l6.1-10.5l1,1c0.8,0.8,2.2,0.8,3.1,0l1-1
	l6.1,10.5c0.1,0.2,0.4,0.4,0.6,0.4h0.1c0.3,0,0.5-0.2,0.6-0.5l1.5-3.8l4,0.6c0.4,0.1,0.8-0.2,0.8-0.6c0-0.2,0-0.3-0.1-0.5
	L488.9,101.6z M469.7,114.2l-1.1-2.9c-0.1-0.3-0.4-0.5-0.8-0.4l-3.1,0.5l5.4-9.4c0.1,0.1,0.2,0.2,0.3,0.4l0.5,1.8
	c0.3,1.2,1.5,1.8,2.7,1.5l1.3-0.4L469.7,114.2z M479.3,105.7c-0.3,0.3-0.7,0.3-1,0l-1.3-1.3c-0.5-0.5-1.3-0.8-2.1-0.6l-1.8,0.5
	c-0.4,0.1-0.8-0.1-0.9-0.5l0,0l-0.5-1.8c-0.2-0.7-0.8-1.3-1.5-1.5l-1.8-0.5c-0.4-0.1-0.6-0.5-0.5-0.9l0.5-1.8c0.2-0.7,0-1.5-0.6-2.1
	l-1.3-1.3c-0.3-0.3-0.3-0.7,0-1l1.3-1.3c0.5-0.5,0.8-1.3,0.5-2.1l-0.5-1.8c-0.1-0.4,0.1-0.8,0.5-0.9l0,0l1.8-0.5
	c0.7-0.2,1.3-0.8,1.5-1.5l0.5-1.8c0.1-0.4,0.5-0.6,0.9-0.5l0,0l1.8,0.5c0.7,0.2,1.5,0,2.1-0.5l1.3-1.3c0.3-0.3,0.7-0.3,1,0l1.3,1.3
	c0.5,0.5,1.3,0.8,2.1,0.6l1.8-0.5c0.4-0.1,0.8,0.1,0.9,0.5l0.5,1.8c0.2,0.7,0.8,1.3,1.5,1.5l1.8,0.5c0.4,0.1,0.6,0.5,0.5,0.9l0,0
	l-0.5,1.8c-0.2,0.7,0,1.5,0.5,2.1L491,93c0.3,0.3,0.3,0.7,0,1l-1.3,1.3c-0.5,0.5-0.8,1.3-0.6,2.1l0.5,1.8c0.1,0.4-0.1,0.8-0.5,0.9
	l-1.8,0.5c-0.7,0.2-1.3,0.8-1.5,1.5l-0.4,1.8c-0.1,0.4-0.5,0.6-0.9,0.5l0,0l-1.8-0.5c-0.7-0.2-1.5,0-2.1,0.6L479.3,105.7z
	 M489.8,110.9c-0.3-0.1-0.7,0.1-0.8,0.4l-1.1,2.9l-5.1-8.9l1.3,0.4c1.2,0.3,2.3-0.4,2.7-1.5l0.5-1.8c0-0.2,0.1-0.3,0.3-0.4l5.4,9.3
	L489.8,110.9z"/>
<path fill="#FFFFFF" d="M473.9,91.9c-0.1,0.3,0,0.5,0.2,0.7l1.8,1.8l-0.4,2.5c-0.1,0.4,0.2,0.8,0.6,0.8c0.2,0,0.3,0,0.5-0.1l2.2-1.2
	l2.2,1.2c0.4,0.2,0.8,0.1,1-0.3c0.1-0.1,0.1-0.3,0.1-0.5l-0.4-2.5l1.8-1.8c0.3-0.3,0.3-0.7,0-1c-0.1-0.1-0.3-0.2-0.4-0.2l-2.5-0.4
	l-1.1-2.2c-0.2-0.4-0.6-0.5-1-0.3c-0.1,0.1-0.3,0.2-0.3,0.3L477,91l-2.5,0.4C474.3,91.4,474,91.6,473.9,91.9z M477.6,92.4
	c0.2,0,0.4-0.2,0.5-0.4l0.6-1.2l0.6,1.3c0.1,0.2,0.3,0.4,0.5,0.4l1.4,0.2l-1,1c-0.2,0.2-0.3,0.4-0.2,0.6l0.2,1.4l-1.3-0.7
	c-0.2-0.1-0.5-0.1-0.7,0l-1.3,0.7l0.2-1.4c0-0.2,0-0.5-0.2-0.6l-1-1L477.6,92.4z"/>
<g id="vSAPzP.tif">
	<g>
		<path fill="#A9A9A9" d="M562.6,27c0,11.4,0,22.7,0,34.1c-0.6,0.7-1.3,1.1-2,1.6c-0.8,0.6-0.8,0.6-1.6,0c-1.5-1.2-0.9-1.3-2.5-0.1
			c-1,0.8-1,0.8-1.9,0c-1.4-1.2-1-1-2.3-0.1c-1.1,0.8-1.1,0.9-2.2-0.1c-1.1-1-0.9-0.8-2,0c-1.4,1-1.1,1-2.4,0
			c-0.2-0.1-0.3-0.3-0.5-0.4c-0.3-0.3-0.6-0.3-1,0s-0.9,0.7-1.3,1c-0.3,0.2-0.6,0.3-0.9,0c-0.4-0.4-0.8-0.7-1.3-1
			c-0.2-0.2-0.5-0.2-0.7,0c-0.5,0.4-0.9,0.7-1.4,1.1c-0.3,0.2-0.6,0.3-0.9,0c-0.7-0.6-1.5-1.2-2.1-1.9c0-11.4,0-22.7,0-34.1
			c0.8-0.9,1.8-1.5,2.7-2.2h0.1c0.5,0.4,1,0.8,1.5,1.2c0.3,0.3,0.6,0.3,0.9,0c0.6-0.4,1.1-0.9,1.8-1.3h0.1c0.5,0.4,1.1,0.8,1.6,1.3
			c0.3,0.2,0.5,0.2,0.8,0c0.6-0.4,1.2-0.9,1.7-1.3c0.1,0,0.2,0,0.3,0c0.5,0.4,1,0.7,1.4,1.2c0.4,0.4,0.7,0.3,1.1,0
			c0.5-0.4,1.1-0.8,1.6-1.2h0.1c0.6,0.3,1.1,0.8,1.6,1.3c0.3,0.3,0.6,0.3,0.9,0c0.6-0.4,1.2-0.9,1.7-1.3h0.1c0.5,0.4,1,0.7,1.4,1.2
			c0.4,0.3,0.7,0.4,1.1,0.1c0.5-0.4,1-0.8,1.6-1.2c0.1,0,0.2,0,0.3,0C561,25.5,561.9,26.1,562.6,27z M536.6,44c0,3.3,0,6.5,0,9.8
			c0,2.1,0,4.2,0,6.3c0,1,0.8,1.3,1.4,1.7c0.4,0.3,0.7-0.2,1-0.4s0.5-0.3,0.7-0.5c0.5-0.5,0.9-0.4,1.4,0c1.4,1.1,1.4,1.1,2.8,0.1
			c0.8-0.6,0.9-0.6,1.6,0c1.5,1.2,0.9,1.3,2.5,0.1c0.1-0.1,0.2-0.1,0.3-0.2c0.5-0.5,0.9-0.4,1.4,0c1.4,1.2,1.4,1.1,2.8,0.1
			c0.8-0.6,0.8-0.6,1.6,0c1.3,1,1.3,1,2.6,0c0.9-0.7,0.9-0.7,1.7,0c0.3,0.2,0.6,0.5,0.8,0.7c0.2,0.1,0.3,0.3,0.6,0.2
			c0.8-0.3,1.6-1.3,1.6-2.2c0-10.3,0-20.7,0-31c0-1-0.2-1.7-1.1-2.2c-0.4-0.3-0.7-0.4-1.1,0c-0.3,0.3-0.7,0.5-1,0.8
			c-0.5,0.5-0.9,0.4-1.4,0c-1.3-1.2-1.3-1.1-2.8-0.1c-0.8,0.6-0.9,0.6-1.7-0.1c-1.5-1.3-1-1.1-2.5-0.1c-1,0.7-1,0.8-1.9,0
			c-1.1-0.9-1.1-0.9-2.3,0s-1.1,0.8-2.1-0.1c-0.2-0.1-0.4-0.3-0.5-0.4c-0.3-0.3-0.6-0.4-1,0c-0.1,0.1-0.3,0.2-0.5,0.4
			c-1.3,1-1.1,1.2-2.5,0c-0.2-0.2-0.4-0.3-0.5-0.4s-0.3-0.2-0.4-0.2c-0.7,0.1-1.7,1.3-1.7,2C536.6,33.4,536.6,38.7,536.6,44z"/>
		<path fill="#A9A9A9" d="M553.9,54.7c0,2.5-2,4.5-4.5,4.5c-2.4,0-4.5-2-4.5-4.3c0-2.8,2-4.8,4.7-4.8
			C552,50.2,553.9,52.3,553.9,54.7z M552.9,54.7c0-2-1.5-3.5-3.4-3.5c-2,0-3.5,1.5-3.5,3.4c0,2,1.5,3.5,3.5,3.5
			C551.4,58.1,552.9,56.6,552.9,54.7z"/>
		<path fill="#A9A9A9" d="M541,44c0,3.5,0,7,0,10.6c0,0.2,0,0.5,0,0.7c0,0.3-0.2,0.5-0.5,0.5s-0.5-0.2-0.5-0.5c0-0.2,0-0.4,0-0.6
			c0-7.1,0-14.2,0-21.3c0-0.5-0.2-1.2,0.6-1.2c0.7,0,0.5,0.7,0.5,1.2C541,36.9,541,40.5,541,44z"/>
		<path fill="#A9A9A9" d="M557.2,44c0-3.5,0-7,0-10.6c0-0.1,0-0.3,0-0.4c0-0.4,0-0.9,0.5-0.9s0.5,0.5,0.5,0.9c0,5.4,0,10.8,0,16.2
			c0,1.9,0,3.8,0,5.7c0,0.3,0,0.6-0.2,0.8c-0.3,0.2-0.7,0.1-0.8-0.3c-0.1-0.2,0-0.5,0-0.7C557.2,51.1,557.2,47.5,557.2,44z"/>
		<path fill="#A9A9A9" d="M549.5,42.8c1.3,0,2.7,0,4,0c0.2,0,0.5,0,0.7,0.1c0.2,0,0.4,0.2,0.4,0.5c0,0.2-0.1,0.4-0.4,0.4
			c-0.2,0-0.5,0.1-0.7,0.1c-2.7,0-5.4,0-8.1,0c-0.4,0-1.1,0.2-1.1-0.5s0.7-0.5,1.1-0.5C546.8,42.8,548.2,42.8,549.5,42.8z"/>
		<path fill="#A9A9A9" d="M549.5,46.4c1.5,0,2.9,0,4.4,0c0.4,0,0.8,0,0.8,0.5s-0.4,0.5-0.8,0.5c-2.9,0-5.8,0-8.7,0
			c-0.1,0-0.2,0-0.3,0c-0.3-0.1-0.5-0.2-0.5-0.5s0.3-0.4,0.6-0.4c1,0,2.1,0,3.1,0C548.5,46.4,549,46.4,549.5,46.4L549.5,46.4z"/>
		<path fill="#A9A9A9" d="M549.4,40.2c-1.5,0-2.9,0-4.4,0c-0.3,0-0.7,0-0.8-0.5c0-0.5,0.4-0.6,0.8-0.6c2.9,0,5.9,0,8.8,0
			c0.4,0,0.8,0.1,0.8,0.5c0,0.5-0.4,0.5-0.8,0.5C552.4,40.2,550.9,40.2,549.4,40.2z"/>
		<path fill="#A9A9A9" d="M549.5,33.1c-1.5,0-2.9,0-4.4,0c-0.4,0-0.8,0-0.8-0.5s0.4-0.6,0.8-0.6c2.9,0,5.8,0,8.7,0
			c0.4,0,0.8,0.1,0.8,0.5c0,0.5-0.4,0.5-0.8,0.5C552.4,33.1,551,33.1,549.5,33.1z"/>
		<path fill="#A9A9A9" d="M549.4,36.7c-1.5,0-2.9,0-4.4,0c-0.4,0-0.7,0-0.8-0.5c0-0.5,0.4-0.6,0.8-0.6c2.9,0,5.9,0,8.8,0
			c0.4,0,0.7,0.1,0.7,0.5s-0.4,0.5-0.7,0.5C552.4,36.7,550.9,36.7,549.4,36.7z"/>
		<path fill="#A9A9A9" d="M549.9,55.6c0-0.3-0.3-0.4-0.5-0.4c-0.8,0-1.3-0.3-1.5-1.1s0-1.4,0.8-1.8c0.2-0.1,0.3-0.3,0.3-0.5
			s0.2-0.4,0.5-0.4c0.2,0,0.4,0.1,0.5,0.3c0.1,0.3,0.3,0.5,0.7,0.5c0.3,0,0.4,0.2,0.4,0.4c0,0.3-0.2,0.5-0.4,0.5
			c-0.4,0.1-0.8,0-1.2,0.1c-0.3,0-0.5,0.1-0.5,0.4c0,0.3,0.2,0.4,0.5,0.4s0.5,0,0.8,0.2c1,0.4,1.2,1.7,0.3,2.4
			c-0.3,0.2-0.6,0.4-0.6,0.8c0,0.2-0.2,0.4-0.5,0.4c-0.2,0-0.4-0.2-0.4-0.4c0-0.4-0.2-0.5-0.6-0.5c-0.3,0-0.5-0.2-0.5-0.5
			s0.3-0.5,0.6-0.5c0.4,0,0.7,0,1.1-0.1C549.7,56,549.9,55.9,549.9,55.6z"/>
	</g>
</g>
<g id="nFBsAq.tif">
	<g>
		<path fill="#A9A9A9" d="M644.4,36.5c0,6.4,0,12.8,0,19.2c-1,3.1-2.8,4.5-6,4.5c-8.3,0-16.6,0-25,0c-3.3,0-5.1-1.3-6-4.5
			c0-6.4,0-12.8,0-19.2c0.5-2.2,1.5-4.1,3.4-5.5c1.8-1.4,3.9-1.9,6.1-1.7c3,0.3,5.6-0.4,8.1-2c1.5-1,3.1-1.9,4.9-2.4
			c0.6,0,1.2,0,1.8,0c1.5,0.4,3,1.1,3.7,2.5s1.6,1.9,3.1,2.4C641.8,30.6,643.7,33.1,644.4,36.5z M625.9,35.5c-4.4,0-8.7,0-13.1,0
			c-1.8,0-3.3,1.1-3.6,2.8c-0.1,0.6-0.1,1.3-0.1,1.9c0,4.7,0,9.4,0,14.1c0,2.8,1.4,4.2,4.2,4.3c8.4,0,16.8,0,25.2,0
			c2.8,0,4.2-1.4,4.3-4.3c0-0.2,0-0.3,0-0.5c0-1.2,0-1.3-1.2-1.3c-1.4,0-2.8,0-4.2,0c-2.8-0.1-5.1-2.3-5.3-5.1s1.8-5.3,4.6-5.8
			c1.4-0.2,2.8-0.1,4.2-0.1c2,0,2,0.3,1.9-2c-0.1-2.6-1.5-4-4.1-4C634.4,35.5,630.1,35.5,625.9,35.5z M616.5,33.6
			c0,0.1,0,0.1,0.1,0.2c2.2,0,4.4,0,6.6,0c0.3,0,0.6-0.1,0.9-0.3c3.1-1.7,6.2-3.4,9.3-5c0.6-0.3,0.6-0.6,0.1-1
			c-1.1-1.1-2.9-1.4-4.5-0.7c-1.9,1-3.8,2-5.6,3C621.1,31.1,618.8,32.4,616.5,33.6z M642.7,47L642.7,47c0-0.9,0-1.8,0-2.7
			c0-0.7-0.2-1.1-1-1c-1.5,0-2.9,0-4.4,0c-2.1,0-3.7,1.6-3.7,3.7c0,2.1,1.4,3.7,3.5,3.8c1.6,0.1,3.1,0,4.7,0c0.6,0,0.9-0.3,0.8-0.8
			C642.7,48.9,642.7,47.9,642.7,47z M627.5,33.6c0,0.1,0,0.1,0,0.2c2.9,0,5.8,0,8.7,0c0.5,0,0.5-0.3,0.3-0.6c-0.5-1-1-2-1.5-3
			c-0.2-0.3-0.4-0.4-0.7-0.2C632,31.1,629.7,32.4,627.5,33.6z M617.8,31c-3.4-0.7-7.4,1.2-7.8,3.4C612.8,34,615.2,32.4,617.8,31z
			 M637.5,31.2c0.4,0.8,0.8,1.5,1.2,2.3c0.1,0.2,0.3,0.2,0.5,0.3c1,0.1,1.9,0.3,2.8,0.7C641,32.8,639.6,31.6,637.5,31.2z"/>
		<path fill="#A9A9A9" d="M637.5,49.3c-1.3,0-2.3-1-2.3-2.3s1-2.4,2.3-2.4s2.4,1.1,2.4,2.4C639.8,48.3,638.8,49.3,637.5,49.3z"/>
	</g>
</g>
<g id="ZQ99j3.tif">
	<g>
		<path fill="#A9A9A9" d="M714.1,24.8c0.6,0.1,1.1,0.2,1.7,0.5c0.6,0.3,1.1,0.7,1.3,1.4c0.1,0.1,0.1,0.3,0.2,0.4
			c0.2,0.4,0.4,0.8,0.4,1.2c0,0.6,0,1.1,0.3,1.7s0.2,1.2,0,1.8c-0.1,0.3-0.2,0.5-0.3,0.8c-0.6,0.8-0.9,1.7-1.4,2.5
			c-0.2,0.3,0,0.3,0.2,0.4c1,0.5,2,1,3.1,1.4c1.8,0.7,2.5,2.2,2.8,3.9c0.2,1.6,0.2,1.7-1.4,2.2c-1.5,0.4-3.1,0.6-4.6,0.7
			c-0.5,0-1,0.1-1.6,0.1c-0.5,0-0.9-0.3-0.9-0.7s0.3-0.7,0.9-0.8c0.9-0.1,1.8-0.1,2.7-0.2c1.1-0.1,2.1-0.3,3.2-0.6
			c0.3-0.1,0.4-0.2,0.3-0.5c-0.1-0.3-0.1-0.7-0.2-1.1c-0.2-0.7-0.6-1.2-1.3-1.6c-1.4-0.6-2.7-1.3-4.1-2c-0.2-0.1-0.4-0.1-0.6,0.1
			c-0.7,0.4-1.5,0.5-2.3,0.3c-0.5-0.1-0.7-0.5-0.6-0.9c0.1-0.4,0.5-0.6,0.9-0.5c0.8,0.2,1.5-0.1,2-0.7c0.2-0.2,0.3-0.4,0.4-0.6
			c0.4-0.9,0.8-1.7,1.4-2.5c0.2-0.2,0.2-0.5,0.2-0.7s0-0.4,0.3-0.4c0.1,0,0.1-0.1,0.1-0.2c-0.1-0.1,0-0.4-0.2-0.4
			c-0.6,0.1-0.6-0.4-0.6-0.8c0-0.3,0-0.6,0-0.8c0-0.3,0-0.5-0.3-0.7c-0.1-0.1-0.2-0.2-0.2-0.4c-0.1-0.6-0.5-0.8-1-1
			c-1-0.3-1.9-0.3-2.9,0c-0.6,0.2-1,0.5-1.3,1c-0.2,0.3-0.5,0.4-0.8,0.3s-0.5-0.3-0.5-0.6c-0.1-0.3,0.1-0.5,0.2-0.7
			c0.7-1,1.7-1.4,2.8-1.6c0.1,0,0.2,0,0.3-0.1C713.1,24.8,713.6,24.8,714.1,24.8z"/>
		<path fill="#A9A9A9" d="M694.4,60.9c-3.9-0.1-8-0.3-12-1.1c-1-0.2-2.1-0.5-3-0.9c-0.4-0.2-0.6-0.5-0.6-0.9c0.2-2.8,1-5.3,2.9-7.5
			c0.5-0.6,1.2-1,1.9-1.3c1.9-0.8,3.8-1.5,5.6-2.4c0.8-0.4,0.8-0.4,0.3-1.2c-0.1-0.1-0.1-0.2-0.2-0.3c-0.6-1.3-1.4-2.5-2.1-3.8
			c-0.7-1.1-0.9-2.4-0.7-3.7c0-0.2,0.1-0.5,0.3-0.7c0.4-0.3,0.3-0.8,0.3-1.2c0-1,0-2,0.2-3c0.5-2.3,1.9-3.8,4.1-4.6
			c2.4-0.8,4.7-0.7,7,0.2c1.2,0.5,2.1,1.3,2.4,2.5c0,0.1,0.1,0.3,0.2,0.3c0.7,0.7,0.9,1.6,0.9,2.5c0,0.6,0,1.2,0,1.8
			c0,0.2,0,0.3,0.1,0.4c0.7,0.7,0.7,1.5,0.6,2.4c-0.1,1.3-0.7,2.5-1.5,3.5c-0.3,0.4-0.6,0.8-0.7,1.3c-0.3,1-0.9,1.9-1.5,2.7
			c-0.3,0.3-0.2,0.4,0.1,0.6c1.9,1,3.9,1.8,5.8,2.8c0.4,0.2,0.8,0.4,1.2,0.6c1.7,0.7,2.7,2,3.4,3.7c0.5,1.3,0.8,2.7,0.8,4.1
			c0,0.7-0.1,0.9-0.8,1.2c-1.6,0.7-3.3,1-5.1,1.3C701.2,60.7,697.9,60.9,694.4,60.9z M694.5,59.5c0.8,0,1.6,0,2.4-0.1
			c2.7-0.1,5.4-0.3,8-0.7c1.2-0.2,2.4-0.5,3.5-0.9c0.2-0.1,0.4-0.1,0.4-0.5c-0.1-1.1-0.3-2.2-0.7-3.2c-0.5-1.3-1.3-2.3-2.6-2.9
			c-0.7-0.3-1.4-0.7-2.1-1c-1.8-0.9-3.7-1.7-5.5-2.7c-0.3-0.2-0.5-0.2-0.8,0c-1.1,0.8-2.3,1.1-3.6,0.8c-0.8-0.2-1.5-0.4-2.2-0.9
			c-0.2-0.2-0.4-0.2-0.7,0c-0.5,0.3-1,0.5-1.5,0.8c-1.7,0.8-3.4,1.5-5.2,2.2c-1,0.4-1.7,1.1-2.3,2c-0.9,1.5-1.4,3.1-1.6,4.8
			c0,0.3,0.1,0.4,0.3,0.5c0.8,0.3,1.5,0.5,2.3,0.6C686.7,59.2,690.6,59.4,694.5,59.5z M694.5,29.2c-0.3,0-0.8,0-1.3,0.1
			c-2.8,0.4-4.6,2.4-4.6,5.2c0,0.8,0,1.7,0,2.5c0,0.4-0.1,0.7-0.5,0.9c-0.2,0.1-0.2,0.2-0.2,0.4c-0.1,1.5,0.5,2.7,1.5,3.8
			c0.3,0.3,0.5,0.6,0.6,1c0.3,1.2,1,2.2,1.9,3c1.6,1.3,3.6,1.3,5.2-0.1c1.2-1,1.9-2.3,2.3-3.7c0.1-0.4,0.3-0.7,0.6-1
			c1.1-1.2,1.6-2.7,1.4-4.3c0-0.2-0.1-0.4-0.3-0.4c-0.4,0-0.4-0.2-0.5-0.5c0-0.9,0-1.7-0.1-2.6c0-0.5-0.2-1-0.6-1.3
			c-0.1-0.1-0.2-0.3-0.3-0.4c-0.2-1.1-0.9-1.7-1.9-2.1C696.7,29.3,695.7,29.2,694.5,29.2z"/>
		<path fill="#A9A9A9" d="M711.3,34.7c0,1.2-0.5,2.3-1.2,3.2c-0.3,0.3-0.5,0.7-0.6,1.1c-0.2,0.7-0.6,1.4-1.1,2
			c-0.3,0.4-0.3,0.4,0.2,0.7c1.2,0.6,2.5,1.2,3.7,1.8c0.7,0.4,1.5,0.7,2.2,1.1c1.1,0.6,1.8,1.6,2.2,2.7c0.5,1.1,0.7,2.3,0.7,3.5
			c0,0.7-0.1,0.8-0.8,1.1c-1.4,0.5-2.8,0.8-4.3,1.1c-0.6,0.1-1.2,0.2-1.8,0.2c-0.5,0.1-0.9-0.2-0.9-0.6c-0.1-0.4,0.2-0.8,0.8-0.8
			c1.7-0.2,3.4-0.4,5-0.9c0.6-0.2,0.6-0.2,0.5-0.9c-0.1-0.8-0.3-1.6-0.6-2.3c-0.4-0.8-0.9-1.5-1.8-1.9c-1.9-0.9-3.8-1.8-5.7-2.7
			c-0.6-0.3-1.1-0.4-1.8,0c-1.2,0.7-2.5,0.5-3.8,0c-0.4-0.2-0.6-0.6-0.4-1c0.2-0.4,0.6-0.5,1-0.3c1.6,0.7,2.9,0.3,4-1
			c0.6-0.7,1-1.5,1.3-2.4c0.1-0.3,0.2-0.6,0.5-0.9c0.7-0.8,1.2-1.6,1.1-2.7c0-0.1,0-0.2,0.1-0.3c0.2-0.6,0.2-0.6-0.4-0.7
			c-0.2,0-0.2-0.2-0.3-0.4c0-0.6,0-1.2,0-1.8c0-0.5-0.1-1-0.6-1.4c-0.1-0.1-0.2-0.2-0.2-0.4c-0.1-0.7-0.5-1.1-1.1-1.4
			c-0.9-0.5-2-0.5-3-0.5c-0.9,0-1.7,0.1-2.5,0.6c-0.3,0.2-0.6,0.4-0.9,0.6c-0.4,0.4-0.8,0.4-1.1,0.1s-0.2-0.8,0.2-1.1
			c0.8-0.7,1.7-1.1,2.7-1.3c1.7-0.4,3.4-0.3,5,0.4c1,0.4,1.7,1,2,2c0,0.1,0.1,0.2,0.1,0.3c0.7,0.8,0.8,1.7,0.8,2.7
			c0,0.6,0,1.1,0.4,1.6C711.3,33.7,711.3,34.2,711.3,34.7z"/>
	</g>
</g>
<g>
	<path fill="#A9A9A9" d="M797.8,24.8c0.2,0,0.3,0.1,0.5,0.1c1.4,0.4,2.3,1.6,2.3,3.1c0,6.4,0,12.7,0,19.1c0,1.6-1.2,2.9-2.7,3
		c-1.3,0.1-2.7,0-4,0c-8.5,0-17,0-25.6,0c-0.3,0-0.7,0-1-0.1c-1.3-0.3-2.1-1.1-2.4-2.4c0-0.1,0-0.1-0.1-0.2c0-6.6,0-13.2,0-19.8
		c0-0.1,0.1-0.1,0.1-0.2c0.3-1.3,1-2.1,2.3-2.5c0.1,0,0.3-0.1,0.4-0.1C777.6,24.8,787.7,24.8,797.8,24.8z M782.6,48.6L782.6,48.6
		c4.9,0,9.9,0,14.8,0c1,0,1.6-0.6,1.6-1.6c0-0.8,0-1.5,0-2.3c0-5.6,0-11.1,0-16.7c0-0.6-0.2-1-0.6-1.4c-0.4-0.4-0.9-0.4-1.4-0.4
		c-7.6,0-15.2,0-22.8,0c-2.1,0-4.1,0-6.2,0c-1,0-1.7,0.7-1.7,1.7c0,0.3,0,0.7,0,1c0,6,0,12,0,18c0,1,0.6,1.6,1.5,1.6
		C772.7,48.6,777.7,48.6,782.6,48.6z"/>
	<path fill="#A9A9A9" d="M781.9,54.6c0-0.7,0-1.4,0-2.1c0-0.4,0.1-0.6,0.4-0.8c0.5-0.2,1,0.1,1.1,0.7c0,0.7,0,1.4,0,2.2
		c0.4,0,0.7,0,1.1,0c0.7,0,1.4,0,2.2,0.2c1.1,0.2,1.9,0.8,2.5,1.8c0.5,0.8,0.9,1.6,1.3,2.5c0.1,0.2,0,0.6-0.1,0.8
		c-0.3,0.6-0.8,0.8-1.5,0.8c-0.1,0-0.2,0-0.3,0c-4,0-8.1,0-12.1,0c-0.5,0-1-0.2-1.3-0.6c-0.3-0.4-0.4-0.8-0.1-1.2
		c0.4-0.7,0.8-1.5,1.2-2.2c0.9-1.3,2.1-1.9,3.7-1.9C780.5,54.6,781.2,54.6,781.9,54.6z M776.5,58.9C776.5,59,776.5,59,776.5,58.9
		c4.1,0.1,8.2,0.1,12.3,0.1c-0.3-0.7-0.6-1.4-1.2-2c-0.5-0.6-1.1-0.9-1.9-0.9c-2,0-4,0-6,0c-0.8,0-1.5,0.3-1.9,0.9
		C777.2,57.6,776.9,58.3,776.5,58.9z"/>
	<path fill="#A9A9A9" d="M796,34.6c0,2.4-2.1,4.4-4.5,4.4c-2.3,0-4.4-2.2-4.4-4.5c0-2.4,2.2-4.4,4.5-4.4
		C794.1,30.1,796.1,32.3,796,34.6z M792.3,31.7c-1.6-0.4-3.2,0.5-3.6,2.1c-0.4,1.7,0.5,3.3,2.1,3.7c1.5,0.4,3.2-0.5,3.5-1.8
		c-0.9-0.1-1.8-0.2-2.7-0.3c-0.8-0.1-1-0.6-0.6-1.3C791.4,33.2,791.8,32.5,792.3,31.7z M793.6,32.3c-0.3,0.5-0.6,1.1-0.9,1.6
		c0.6,0.1,1.2,0.1,1.8,0.2C794.4,33.4,794.2,32.8,793.6,32.3z"/>
	<path fill="#A9A9A9" d="M782.6,38.2c0-2.2,0-4.4,0-6.5c0-0.7,0.5-1.1,1-0.8c0.4,0.2,0.5,0.5,0.5,0.9c0,2,0,3.9,0,5.9
		c0,2.4,0,4.8,0,7.2c0,0.5-0.3,0.9-0.7,0.9c-0.5,0-0.8-0.3-0.8-0.9c0-1.5,0-2.9,0-4.4C782.6,39.6,782.6,38.9,782.6,38.2z"/>
	<path fill="#A9A9A9" d="M781.1,40.4c0,1.5,0,2.9,0,4.4c0,0.5-0.3,0.8-0.7,0.8s-0.7-0.3-0.7-0.8c0-1.4,0-2.7,0-4.1
		c0-1.6,0-3.1,0-4.7c0-0.6,0.6-1,1.1-0.7c0.3,0.2,0.4,0.4,0.4,0.7C781.1,37.5,781.1,38.9,781.1,40.4L781.1,40.4z"/>
	<path fill="#A9A9A9" d="M791.6,42.7c-1.2,0-2.4,0-3.6,0c-0.1,0-0.3,0-0.4-0.1c-0.3-0.1-0.5-0.4-0.5-0.7s0.3-0.6,0.6-0.7
		c0.1,0,0.3,0,0.4,0c2.3,0,4.7,0,7,0c0.1,0,0.1,0,0.2,0c0.5,0,0.8,0.3,0.8,0.7s-0.3,0.8-0.8,0.8C794,42.7,792.8,42.7,791.6,42.7z"/>
	<path fill="#A9A9A9" d="M773.6,41.1c0-1.2,0-2.4,0-3.5c0-0.2,0.1-0.5,0.3-0.7s0.5-0.2,0.8-0.1c0.3,0.1,0.4,0.4,0.4,0.7
		c0,1.1,0,2.2,0,3.3c0,1.3,0,2.7,0,4c0,0.6-0.5,1-1,0.8c-0.3-0.1-0.5-0.4-0.5-0.8C773.6,43.6,773.6,42.4,773.6,41.1z"/>
	<path fill="#A9A9A9" d="M791.6,45.6c-1.2,0-2.4,0-3.6,0c-0.6,0-0.9-0.3-0.9-0.7c0-0.5,0.4-0.7,0.9-0.7c2.4,0,4.8,0,7.2,0
		c0.5,0,0.8,0.3,0.9,0.7c0,0.5-0.3,0.8-0.8,0.8C794,45.6,792.8,45.6,791.6,45.6z"/>
	<path fill="#A9A9A9" d="M778.1,41.9c0,0.9,0,1.9,0,2.8c0,0.6-0.3,0.9-0.8,0.9s-0.7-0.3-0.7-0.9c0-1.9,0-3.8,0-5.7
		c0-0.5,0.3-0.9,0.7-0.9c0.5,0,0.7,0.3,0.7,0.9C778.1,40,778.1,41,778.1,41.9z"/>
	<path fill="#A9A9A9" d="M772.1,43.4c0,0.5,0,1,0,1.5s-0.3,0.8-0.7,0.8s-0.7-0.3-0.8-0.8c0-1,0-1.9,0-2.9c0-0.5,0.3-0.8,0.7-0.8
		s0.7,0.3,0.7,0.8C772.2,42.5,772.2,42.9,772.1,43.4z"/>
</g>
<g id="vSAPzP.tif_1_">
	<g>
		<path fill="#FFFFFF" d="M562.6,80.4c0,11.4,0,22.7,0,34.1c-0.6,0.7-1.3,1.1-2,1.6c-0.8,0.6-0.8,0.6-1.6,0
			c-1.5-1.2-0.9-1.3-2.5-0.1c-1,0.8-1,0.8-1.9,0c-1.4-1.2-1-1-2.3-0.1c-1.1,0.8-1.1,0.9-2.2-0.1c-1.1-1-0.9-0.8-2,0
			c-1.4,1-1.1,1-2.4,0c-0.2-0.1-0.3-0.3-0.5-0.4c-0.3-0.3-0.6-0.3-1,0s-0.9,0.7-1.3,1c-0.3,0.2-0.6,0.3-0.9,0
			c-0.4-0.4-0.8-0.7-1.3-1c-0.2-0.2-0.5-0.2-0.7,0c-0.5,0.4-0.9,0.7-1.4,1.1c-0.3,0.2-0.6,0.3-0.9,0c-0.7-0.6-1.5-1.2-2.1-1.9
			c0-11.4,0-22.7,0-34.1c0.8-0.9,1.8-1.5,2.7-2.2h0.1c0.5,0.4,1,0.8,1.5,1.2c0.3,0.3,0.6,0.3,0.9,0c0.6-0.4,1.1-0.9,1.8-1.3h0.1
			c0.5,0.4,1.1,0.8,1.6,1.3c0.3,0.2,0.5,0.2,0.8,0c0.6-0.4,1.2-0.9,1.7-1.3c0.1,0,0.2,0,0.3,0c0.5,0.4,1,0.7,1.4,1.2
			c0.4,0.4,0.7,0.3,1.1,0c0.5-0.4,1.1-0.8,1.6-1.2h0.1c0.6,0.3,1.1,0.8,1.6,1.3c0.3,0.3,0.6,0.3,0.9,0c0.6-0.4,1.2-0.9,1.7-1.3h0.1
			c0.5,0.4,1,0.7,1.4,1.2c0.4,0.3,0.7,0.4,1.1,0.1c0.5-0.4,1-0.8,1.6-1.2c0.1,0,0.2,0,0.3,0C561,79,561.9,79.6,562.6,80.4z
			 M536.6,97.5c0,3.3,0,6.5,0,9.8c0,2.1,0,4.2,0,6.3c0,1,0.8,1.3,1.4,1.7c0.4,0.3,0.7-0.2,1-0.4c0.3-0.2,0.5-0.3,0.7-0.5
			c0.5-0.5,0.9-0.4,1.4,0c1.4,1.1,1.4,1.1,2.8,0.1c0.8-0.6,0.9-0.6,1.6,0c1.5,1.2,0.9,1.3,2.5,0.1c0.1-0.1,0.2-0.1,0.3-0.2
			c0.5-0.5,0.9-0.4,1.4,0c1.4,1.2,1.4,1.1,2.8,0.1c0.8-0.6,0.8-0.6,1.6,0c1.3,1,1.3,1,2.6,0c0.9-0.7,0.9-0.7,1.7,0
			c0.3,0.2,0.6,0.5,0.8,0.7c0.2,0.1,0.3,0.3,0.6,0.2c0.8-0.3,1.6-1.3,1.6-2.2c0-10.3,0-20.7,0-31c0-1-0.2-1.7-1.1-2.2
			c-0.4-0.3-0.7-0.4-1.1,0c-0.3,0.3-0.7,0.5-1,0.8c-0.5,0.5-0.9,0.4-1.4,0c-1.3-1.2-1.3-1.1-2.8-0.1c-0.8,0.6-0.9,0.6-1.7-0.1
			c-1.5-1.3-1-1.1-2.5-0.1c-1,0.7-1,0.8-1.9,0c-1.1-0.9-1.1-0.9-2.3,0s-1.1,0.8-2.1-0.1c-0.2-0.1-0.4-0.3-0.5-0.4
			c-0.3-0.3-0.6-0.4-1,0c-0.1,0.1-0.3,0.2-0.5,0.4c-1.3,1-1.1,1.2-2.5,0c-0.2-0.2-0.4-0.3-0.5-0.4s-0.3-0.2-0.4-0.2
			c-0.7,0.1-1.7,1.3-1.7,2C536.6,86.9,536.6,92.2,536.6,97.5z"/>
		<path fill="#FFFFFF" d="M553.9,108.2c0,2.5-2,4.5-4.5,4.5c-2.4,0-4.5-2-4.5-4.3c0-2.8,2-4.8,4.7-4.8
			C552,103.7,553.9,105.7,553.9,108.2z M552.9,108.2c0-2-1.5-3.5-3.4-3.5c-2,0-3.5,1.5-3.5,3.4c0,2,1.5,3.5,3.5,3.5
			C551.4,111.6,552.9,110.1,552.9,108.2z"/>
		<path fill="#FFFFFF" d="M541,97.5c0,3.5,0,7,0,10.6c0,0.2,0,0.5,0,0.7c0,0.3-0.2,0.5-0.5,0.5s-0.5-0.2-0.5-0.5c0-0.2,0-0.4,0-0.6
			c0-7.1,0-14.2,0-21.3c0-0.5-0.2-1.2,0.6-1.2c0.7,0,0.5,0.7,0.5,1.2C541,90.4,541,93.9,541,97.5z"/>
		<path fill="#FFFFFF" d="M557.2,97.5c0-3.5,0-7,0-10.6c0-0.1,0-0.3,0-0.4c0-0.4,0-0.9,0.5-0.9s0.5,0.5,0.5,0.9c0,5.4,0,10.8,0,16.2
			c0,1.9,0,3.8,0,5.7c0,0.3,0,0.6-0.2,0.8c-0.3,0.2-0.7,0.1-0.8-0.3c-0.1-0.2,0-0.5,0-0.7C557.2,104.6,557.2,101,557.2,97.5z"/>
		<path fill="#FFFFFF" d="M549.5,96.3c1.3,0,2.7,0,4,0c0.2,0,0.5,0,0.7,0.1c0.2,0,0.4,0.2,0.4,0.5c0,0.2-0.1,0.4-0.4,0.4
			c-0.2,0-0.5,0.1-0.7,0.1c-2.7,0-5.4,0-8.1,0c-0.4,0-1.1,0.2-1.1-0.5s0.7-0.5,1.1-0.5C546.8,96.2,548.2,96.3,549.5,96.3z"/>
		<path fill="#FFFFFF" d="M549.5,99.9c1.5,0,2.9,0,4.4,0c0.4,0,0.8,0,0.8,0.5s-0.4,0.5-0.8,0.5c-2.9,0-5.8,0-8.7,0
			c-0.1,0-0.2,0-0.3,0c-0.3-0.1-0.5-0.2-0.5-0.5s0.3-0.4,0.6-0.4c1,0,2.1,0,3.1,0C548.5,99.9,549,99.9,549.5,99.9L549.5,99.9z"/>
		<path fill="#FFFFFF" d="M549.4,93.7c-1.5,0-2.9,0-4.4,0c-0.3,0-0.7,0-0.8-0.5c0-0.5,0.4-0.6,0.8-0.6c2.9,0,5.9,0,8.8,0
			c0.4,0,0.8,0.1,0.8,0.5c0,0.5-0.4,0.5-0.8,0.5C552.4,93.7,550.9,93.7,549.4,93.7z"/>
		<path fill="#FFFFFF" d="M549.5,86.6c-1.5,0-2.9,0-4.4,0c-0.4,0-0.8,0-0.8-0.5s0.4-0.6,0.8-0.6c2.9,0,5.8,0,8.7,0
			c0.4,0,0.8,0.1,0.8,0.5c0,0.5-0.4,0.5-0.8,0.5C552.4,86.6,551,86.6,549.5,86.6z"/>
		<path fill="#FFFFFF" d="M549.4,90.2c-1.5,0-2.9,0-4.4,0c-0.4,0-0.7,0-0.8-0.5c0-0.5,0.4-0.6,0.8-0.6c2.9,0,5.9,0,8.8,0
			c0.4,0,0.7,0.1,0.7,0.5s-0.4,0.5-0.7,0.5C552.4,90.2,550.9,90.2,549.4,90.2z"/>
		<path fill="#FFFFFF" d="M549.9,109.1c0-0.3-0.3-0.4-0.5-0.4c-0.8,0-1.3-0.3-1.5-1.1c-0.2-0.8,0-1.4,0.8-1.8
			c0.2-0.1,0.3-0.3,0.3-0.5s0.2-0.4,0.5-0.4c0.2,0,0.4,0.1,0.5,0.3c0.1,0.3,0.3,0.5,0.7,0.5c0.3,0,0.4,0.2,0.4,0.4
			c0,0.3-0.2,0.5-0.4,0.5c-0.4,0.1-0.8,0-1.2,0.1c-0.3,0-0.5,0.1-0.5,0.4s0.2,0.4,0.5,0.4s0.5,0,0.8,0.2c1,0.4,1.2,1.7,0.3,2.4
			c-0.3,0.2-0.6,0.4-0.6,0.8c0,0.2-0.2,0.4-0.5,0.4c-0.2,0-0.4-0.2-0.4-0.4c0-0.4-0.2-0.5-0.6-0.5c-0.3,0-0.5-0.2-0.5-0.5
			s0.3-0.5,0.6-0.5c0.4,0,0.7,0,1.1-0.1C549.7,109.5,549.9,109.4,549.9,109.1z"/>
	</g>
</g>
<g id="nFBsAq.tif_1_">
	<g>
		<path fill="#FFFFFF" d="M644.4,89.9c0,6.4,0,12.8,0,19.2c-1,3.1-2.8,4.5-6,4.5c-8.3,0-16.6,0-25,0c-3.3,0-5.1-1.3-6-4.5
			c0-6.4,0-12.8,0-19.2c0.5-2.2,1.5-4.1,3.4-5.5c1.8-1.4,3.9-1.9,6.1-1.7c3,0.3,5.6-0.4,8.1-2c1.5-1,3.1-1.9,4.9-2.4
			c0.6,0,1.2,0,1.8,0c1.5,0.4,3,1.1,3.7,2.5s1.6,1.9,3.1,2.4C641.8,84.1,643.7,86.6,644.4,89.9z M625.9,89c-4.4,0-8.7,0-13.1,0
			c-1.8,0-3.3,1.1-3.6,2.8c-0.1,0.6-0.1,1.3-0.1,1.9c0,4.7,0,9.4,0,14.1c0,2.8,1.4,4.2,4.2,4.3c8.4,0,16.8,0,25.2,0
			c2.8,0,4.2-1.4,4.3-4.3c0-0.2,0-0.3,0-0.5c0-1.2,0-1.3-1.2-1.3c-1.4,0-2.8,0-4.2,0c-2.8-0.1-5.1-2.3-5.3-5.1
			c-0.2-2.8,1.8-5.3,4.6-5.8c1.4-0.2,2.8-0.1,4.2-0.1c2,0,2,0.3,1.9-2c-0.1-2.6-1.5-4-4.1-4C634.4,89,630.1,89,625.9,89z
			 M616.5,87.1c0,0.1,0,0.1,0.1,0.2c2.2,0,4.4,0,6.6,0c0.3,0,0.6-0.1,0.9-0.3c3.1-1.7,6.2-3.4,9.3-5c0.6-0.3,0.6-0.6,0.1-1
			c-1.1-1.1-2.9-1.4-4.5-0.7c-1.9,1-3.8,2-5.6,3C621.1,84.6,618.8,85.9,616.5,87.1z M642.7,100.5L642.7,100.5c0-0.9,0-1.8,0-2.7
			c0-0.7-0.2-1.1-1-1c-1.5,0-2.9,0-4.4,0c-2.1,0-3.7,1.6-3.7,3.7s1.4,3.7,3.5,3.8c1.6,0.1,3.1,0,4.7,0c0.6,0,0.9-0.3,0.8-0.8
			C642.7,102.4,642.7,101.4,642.7,100.5z M627.5,87.1c0,0.1,0,0.1,0,0.2c2.9,0,5.8,0,8.7,0c0.5,0,0.5-0.3,0.3-0.6c-0.5-1-1-2-1.5-3
			c-0.2-0.3-0.4-0.4-0.7-0.2C632,84.6,629.7,85.8,627.5,87.1z M617.8,84.5c-3.4-0.7-7.4,1.2-7.8,3.4
			C612.8,87.5,615.2,85.9,617.8,84.5z M637.5,84.7c0.4,0.8,0.8,1.5,1.2,2.3c0.1,0.2,0.3,0.2,0.5,0.3c1,0.1,1.9,0.3,2.8,0.7
			C641,86.2,639.6,85.1,637.5,84.7z"/>
		<path fill="#FFFFFF" d="M637.5,102.8c-1.3,0-2.3-1-2.3-2.3s1-2.4,2.3-2.4s2.4,1.1,2.4,2.4C639.8,101.8,638.8,102.8,637.5,102.8z"
			/>
	</g>
</g>
<g id="ZQ99j3.tif_1_">
	<g>
		<path fill="#FFFFFF" d="M714.1,78.3c0.6,0.1,1.1,0.2,1.7,0.5c0.6,0.3,1.1,0.7,1.3,1.4c0.1,0.1,0.1,0.3,0.2,0.4
			c0.2,0.4,0.4,0.8,0.4,1.2c0,0.6,0,1.1,0.3,1.7s0.2,1.2,0,1.8c-0.1,0.3-0.2,0.5-0.3,0.8c-0.6,0.8-0.9,1.7-1.4,2.5
			c-0.2,0.3,0,0.3,0.2,0.4c1,0.5,2,1,3.1,1.4c1.8,0.7,2.5,2.2,2.8,3.9c0.2,1.6,0.2,1.7-1.4,2.2c-1.5,0.4-3.1,0.6-4.6,0.7
			c-0.5,0-1,0.1-1.6,0.1c-0.5,0-0.9-0.3-0.9-0.7c0-0.4,0.3-0.7,0.9-0.8c0.9-0.1,1.8-0.1,2.7-0.2c1.1-0.1,2.1-0.3,3.2-0.6
			c0.3-0.1,0.4-0.2,0.3-0.5c-0.1-0.3-0.1-0.7-0.2-1.1c-0.2-0.7-0.6-1.2-1.3-1.6c-1.4-0.6-2.7-1.3-4.1-2c-0.2-0.1-0.4-0.1-0.6,0.1
			c-0.7,0.4-1.5,0.5-2.3,0.3c-0.5-0.1-0.7-0.5-0.6-0.9c0.1-0.4,0.5-0.6,0.9-0.5c0.8,0.2,1.5-0.1,2-0.7c0.2-0.2,0.3-0.4,0.4-0.6
			c0.4-0.9,0.8-1.7,1.4-2.5c0.2-0.2,0.2-0.5,0.2-0.7s0-0.4,0.3-0.4c0.1,0,0.1-0.1,0.1-0.2c-0.1-0.1,0-0.4-0.2-0.4
			c-0.6,0.1-0.6-0.4-0.6-0.8c0-0.3,0-0.6,0-0.8c0-0.3,0-0.5-0.3-0.7c-0.1-0.1-0.2-0.2-0.2-0.4c-0.1-0.6-0.5-0.8-1-1
			c-1-0.3-1.9-0.3-2.9,0c-0.6,0.2-1,0.5-1.3,1c-0.2,0.3-0.5,0.4-0.8,0.3s-0.5-0.3-0.5-0.6c-0.1-0.3,0.1-0.5,0.2-0.7
			c0.7-1,1.7-1.4,2.8-1.6c0.1,0,0.2,0,0.3-0.1C713.1,78.3,713.6,78.3,714.1,78.3z"/>
		<path fill="#FFFFFF" d="M694.4,114.4c-3.9-0.1-8-0.3-12-1.1c-1-0.2-2.1-0.5-3-0.9c-0.4-0.2-0.6-0.5-0.6-0.9c0.2-2.8,1-5.3,2.9-7.5
			c0.5-0.6,1.2-1,1.9-1.3c1.9-0.8,3.8-1.5,5.6-2.4c0.8-0.4,0.8-0.4,0.3-1.2c-0.1-0.1-0.1-0.2-0.2-0.3c-0.6-1.3-1.4-2.5-2.1-3.8
			c-0.7-1.1-0.9-2.4-0.7-3.7c0-0.2,0.1-0.5,0.3-0.7c0.4-0.3,0.3-0.8,0.3-1.2c0-1,0-2,0.2-3c0.5-2.3,1.9-3.8,4.1-4.6
			c2.4-0.8,4.7-0.7,7,0.2c1.2,0.5,2.1,1.3,2.4,2.5c0,0.1,0.1,0.3,0.2,0.3c0.7,0.7,0.9,1.6,0.9,2.5c0,0.6,0,1.2,0,1.8
			c0,0.2,0,0.3,0.1,0.4c0.7,0.7,0.7,1.5,0.6,2.4c-0.1,1.3-0.7,2.5-1.5,3.5c-0.3,0.4-0.6,0.8-0.7,1.3c-0.3,1-0.9,1.9-1.5,2.7
			c-0.3,0.3-0.2,0.4,0.1,0.6c1.9,1,3.9,1.8,5.8,2.8c0.4,0.2,0.8,0.4,1.2,0.6c1.7,0.7,2.7,2,3.4,3.7c0.5,1.3,0.8,2.7,0.8,4.1
			c0,0.7-0.1,0.9-0.8,1.2c-1.6,0.7-3.3,1-5.1,1.3C701.2,114.2,697.9,114.4,694.4,114.4z M694.5,113c0.8,0,1.6,0,2.4-0.1
			c2.7-0.1,5.4-0.3,8-0.7c1.2-0.2,2.4-0.5,3.5-0.9c0.2-0.1,0.4-0.1,0.4-0.5c-0.1-1.1-0.3-2.2-0.7-3.2c-0.5-1.3-1.3-2.3-2.6-2.9
			c-0.7-0.3-1.4-0.7-2.1-1c-1.8-0.9-3.7-1.7-5.5-2.7c-0.3-0.2-0.5-0.2-0.8,0c-1.1,0.8-2.3,1.1-3.6,0.8c-0.8-0.2-1.5-0.4-2.2-0.9
			c-0.2-0.2-0.4-0.2-0.7,0c-0.5,0.3-1,0.5-1.5,0.8c-1.7,0.8-3.4,1.5-5.2,2.2c-1,0.4-1.7,1.1-2.3,2c-0.9,1.5-1.4,3.1-1.6,4.8
			c0,0.3,0.1,0.4,0.3,0.5c0.8,0.3,1.5,0.5,2.3,0.6C686.7,112.7,690.6,112.9,694.5,113z M694.5,82.7c-0.3,0-0.8,0-1.3,0.1
			c-2.8,0.4-4.6,2.4-4.6,5.2c0,0.8,0,1.7,0,2.5c0,0.4-0.1,0.7-0.5,0.9c-0.2,0.1-0.2,0.2-0.2,0.4c-0.1,1.5,0.5,2.7,1.5,3.8
			c0.3,0.3,0.5,0.6,0.6,1c0.3,1.2,1,2.2,1.9,3c1.6,1.3,3.6,1.3,5.2-0.1c1.2-1,1.9-2.3,2.3-3.7c0.1-0.4,0.3-0.7,0.6-1
			c1.1-1.2,1.6-2.7,1.4-4.3c0-0.2-0.1-0.4-0.3-0.4c-0.4,0-0.4-0.2-0.5-0.5c0-0.9,0-1.7-0.1-2.6c0-0.5-0.2-1-0.6-1.3
			c-0.1-0.1-0.2-0.3-0.3-0.4c-0.2-1.1-0.9-1.7-1.9-2.1C696.7,82.8,695.7,82.7,694.5,82.7z"/>
		<path fill="#FFFFFF" d="M711.3,88.2c0,1.2-0.5,2.3-1.2,3.2c-0.3,0.3-0.5,0.7-0.6,1.1c-0.2,0.7-0.6,1.4-1.1,2
			c-0.3,0.4-0.3,0.4,0.2,0.7c1.2,0.6,2.5,1.2,3.7,1.8c0.7,0.4,1.5,0.7,2.2,1.1c1.1,0.6,1.8,1.6,2.2,2.7c0.5,1.1,0.7,2.3,0.7,3.5
			c0,0.7-0.1,0.8-0.8,1.1c-1.4,0.5-2.8,0.8-4.3,1.1c-0.6,0.1-1.2,0.2-1.8,0.2c-0.5,0.1-0.9-0.2-0.9-0.6c-0.1-0.4,0.2-0.8,0.8-0.8
			c1.7-0.2,3.4-0.4,5-0.9c0.6-0.2,0.6-0.2,0.5-0.9c-0.1-0.8-0.3-1.6-0.6-2.3c-0.4-0.8-0.9-1.5-1.8-1.9c-1.9-0.9-3.8-1.8-5.7-2.7
			c-0.6-0.3-1.1-0.4-1.8,0c-1.2,0.7-2.5,0.5-3.8,0c-0.4-0.2-0.6-0.6-0.4-1c0.2-0.4,0.6-0.5,1-0.3c1.6,0.7,2.9,0.3,4-1
			c0.6-0.7,1-1.5,1.3-2.4c0.1-0.3,0.2-0.6,0.5-0.9c0.7-0.8,1.2-1.6,1.1-2.7c0-0.1,0-0.2,0.1-0.3c0.2-0.6,0.2-0.6-0.4-0.7
			c-0.2,0-0.2-0.2-0.3-0.4c0-0.6,0-1.2,0-1.8c0-0.5-0.1-1-0.6-1.4c-0.1-0.1-0.2-0.2-0.2-0.4c-0.1-0.7-0.5-1.1-1.1-1.4
			c-0.9-0.5-2-0.5-3-0.5c-0.9,0-1.7,0.1-2.5,0.6c-0.3,0.2-0.6,0.4-0.9,0.6c-0.4,0.4-0.8,0.4-1.1,0.1s-0.2-0.8,0.2-1.1
			c0.8-0.7,1.7-1.1,2.7-1.3c1.7-0.4,3.4-0.3,5,0.4c1,0.4,1.7,1,2,2c0,0.1,0.1,0.2,0.1,0.3c0.7,0.8,0.8,1.7,0.8,2.7
			c0,0.6,0,1.1,0.4,1.6C711.3,87.2,711.3,87.7,711.3,88.2z"/>
	</g>
</g>
<g>
	<path fill="#FFFFFF" d="M797.8,78.3c0.2,0,0.3,0.1,0.5,0.1c1.4,0.4,2.3,1.6,2.3,3.1c0,6.4,0,12.7,0,19.1c0,1.6-1.2,2.9-2.7,3
		c-1.3,0.1-2.7,0-4,0c-8.5,0-17,0-25.6,0c-0.3,0-0.7,0-1-0.1c-1.3-0.3-2.1-1.1-2.4-2.4c0-0.1,0-0.1-0.1-0.2c0-6.6,0-13.2,0-19.8
		c0-0.1,0.1-0.1,0.1-0.2c0.3-1.3,1-2.1,2.3-2.5c0.1,0,0.3-0.1,0.4-0.1C777.6,78.3,787.7,78.3,797.8,78.3z M782.6,102.1L782.6,102.1
		c4.9,0,9.9,0,14.8,0c1,0,1.6-0.6,1.6-1.6c0-0.8,0-1.5,0-2.3c0-5.6,0-11.1,0-16.7c0-0.6-0.2-1-0.6-1.4c-0.4-0.4-0.9-0.4-1.4-0.4
		c-7.6,0-15.2,0-22.8,0c-2.1,0-4.1,0-6.2,0c-1,0-1.7,0.7-1.7,1.7c0,0.3,0,0.7,0,1c0,6,0,12,0,18c0,1,0.6,1.6,1.5,1.6
		C772.7,102.1,777.7,102.1,782.6,102.1z"/>
	<path fill="#FFFFFF" d="M781.9,108.1c0-0.7,0-1.4,0-2.1c0-0.4,0.1-0.6,0.4-0.8c0.5-0.2,1,0.1,1.1,0.7c0,0.7,0,1.4,0,2.2
		c0.4,0,0.7,0,1.1,0c0.7,0,1.4,0,2.2,0.2c1.1,0.2,1.9,0.8,2.5,1.8c0.5,0.8,0.9,1.6,1.3,2.5c0.1,0.2,0,0.6-0.1,0.8
		c-0.3,0.6-0.8,0.8-1.5,0.8c-0.1,0-0.2,0-0.3,0c-4,0-8.1,0-12.1,0c-0.5,0-1-0.2-1.3-0.6s-0.4-0.8-0.1-1.2c0.4-0.7,0.8-1.5,1.2-2.2
		c0.9-1.3,2.1-1.9,3.7-1.9C780.5,108.1,781.2,108.1,781.9,108.1z M776.5,112.4C776.5,112.5,776.5,112.5,776.5,112.4
		c4.1,0.1,8.2,0.1,12.3,0.1c-0.3-0.7-0.6-1.4-1.2-2c-0.5-0.6-1.1-0.9-1.9-0.9c-2,0-4,0-6,0c-0.8,0-1.5,0.3-1.9,0.9
		C777.2,111.1,776.9,111.8,776.5,112.4z"/>
	<path fill="#FFFFFF" d="M796,88.1c0,2.4-2.1,4.4-4.5,4.4c-2.3,0-4.4-2.2-4.4-4.5c0-2.4,2.2-4.4,4.5-4.4
		C794.1,83.6,796.1,85.8,796,88.1z M792.3,85.1c-1.6-0.4-3.2,0.5-3.6,2.1c-0.4,1.7,0.5,3.3,2.1,3.7c1.5,0.4,3.2-0.5,3.5-1.8
		c-0.9-0.1-1.8-0.2-2.7-0.3c-0.8-0.1-1-0.6-0.6-1.3C791.4,86.7,791.8,85.9,792.3,85.1z M793.6,85.8c-0.3,0.5-0.6,1.1-0.9,1.6
		c0.6,0.1,1.2,0.1,1.8,0.2C794.4,86.9,794.2,86.3,793.6,85.8z"/>
	<path fill="#FFFFFF" d="M782.6,91.7c0-2.2,0-4.4,0-6.5c0-0.7,0.5-1.1,1-0.8c0.4,0.2,0.5,0.5,0.5,0.9c0,2,0,3.9,0,5.9
		c0,2.4,0,4.8,0,7.2c0,0.5-0.3,0.9-0.7,0.9c-0.5,0-0.8-0.3-0.8-0.9c0-1.5,0-2.9,0-4.4C782.6,93.1,782.6,92.4,782.6,91.7z"/>
	<path fill="#FFFFFF" d="M781.1,93.9c0,1.5,0,2.9,0,4.4c0,0.5-0.3,0.8-0.7,0.8s-0.7-0.3-0.7-0.8c0-1.4,0-2.7,0-4.1
		c0-1.6,0-3.1,0-4.7c0-0.6,0.6-1,1.1-0.7c0.3,0.2,0.4,0.4,0.4,0.7C781.1,91,781.1,92.4,781.1,93.9L781.1,93.9z"/>
	<path fill="#FFFFFF" d="M791.6,96.2c-1.2,0-2.4,0-3.6,0c-0.1,0-0.3,0-0.4-0.1c-0.3-0.1-0.5-0.4-0.5-0.7c0-0.3,0.3-0.6,0.6-0.7
		c0.1,0,0.3,0,0.4,0c2.3,0,4.7,0,7,0c0.1,0,0.1,0,0.2,0c0.5,0,0.8,0.3,0.8,0.7c0,0.4-0.3,0.8-0.8,0.8
		C794,96.2,792.8,96.2,791.6,96.2z"/>
	<path fill="#FFFFFF" d="M773.6,94.6c0-1.2,0-2.4,0-3.5c0-0.2,0.1-0.5,0.3-0.7s0.5-0.2,0.8-0.1s0.4,0.4,0.4,0.7c0,1.1,0,2.2,0,3.3
		c0,1.3,0,2.7,0,4c0,0.6-0.5,1-1,0.8c-0.3-0.1-0.5-0.4-0.5-0.8C773.6,97.1,773.6,95.8,773.6,94.6z"/>
	<path fill="#FFFFFF" d="M791.6,99.1c-1.2,0-2.4,0-3.6,0c-0.6,0-0.9-0.3-0.9-0.7c0-0.5,0.4-0.7,0.9-0.7c2.4,0,4.8,0,7.2,0
		c0.5,0,0.8,0.3,0.9,0.7c0,0.5-0.3,0.8-0.8,0.8C794,99.1,792.8,99.1,791.6,99.1z"/>
	<path fill="#FFFFFF" d="M778.1,95.4c0,0.9,0,1.9,0,2.8c0,0.6-0.3,0.9-0.8,0.9s-0.7-0.3-0.7-0.9c0-1.9,0-3.8,0-5.7
		c0-0.5,0.3-0.9,0.7-0.9c0.5,0,0.7,0.3,0.7,0.9C778.1,93.5,778.1,94.5,778.1,95.4z"/>
	<path fill="#FFFFFF" d="M772.1,96.9c0,0.5,0,1,0,1.5s-0.3,0.8-0.7,0.8s-0.7-0.3-0.8-0.8c0-1,0-1.9,0-2.9c0-0.5,0.3-0.8,0.7-0.8
		s0.7,0.3,0.7,0.8C772.2,95.9,772.2,96.4,772.1,96.9z"/>
</g>
<g>
	<path fill="#A9A9A9" d="M876,39.5c0,10.2-8.5,18.7-18.7,18.6c-10.3,0-18.7-8.5-18.7-18.8c0-10.2,8.5-18.6,18.8-18.6
		C867.6,20.8,876,29.2,876,39.5z M840.7,39.3c0.1,9,6.9,16.6,16.5,16.7c9,0.1,16.5-6.7,16.7-16.4c0.1-8.9-6.7-16.6-16.4-16.7
		C848.5,22.8,841,29.6,840.7,39.3z"/>
	<path fill="#A9A9A9" d="M852.5,45.2c-0.4,0-0.7-0.2-0.9-0.6c-0.2-0.5-0.1-1,0.3-1.3c0.9-1,1.9-1.9,2.8-2.8c3-3,6-6,8.9-8.9
		c0.3-0.3,0.6-0.6,0.9-0.9c0.5-0.4,0.9-0.4,1.4,0c0.5,0.5,0.5,1,0,1.4c-1.2,1.2-2.3,2.4-3.5,3.6c-2.9,2.9-5.9,5.9-8.8,8.8
		C853.3,44.9,853,45.2,852.5,45.2z"/>
	<path fill="#A9A9A9" d="M863.1,41.7c2.2,0,3.9,1.7,3.9,3.9c0,2.2-1.8,3.9-4,3.9c-2.2,0-3.9-1.7-3.9-3.9
		C859.2,43.3,860.9,41.7,863.1,41.7z M864.9,45.5c0-1.1-0.8-1.8-1.9-1.8c-1,0-1.7,0.8-1.7,1.8c0,1,0.8,1.8,1.8,1.8
		C864.1,47.3,864.9,46.6,864.9,45.5z"/>
	<path fill="#A9A9A9" d="M855.1,33.5c0,2.2-1.7,3.8-4,3.8c-2.2,0-3.8-1.7-3.8-3.9c0-2.2,1.7-3.9,4-3.8
		C853.5,29.5,855.1,31.2,855.1,33.5z M853,33.4c0-1-0.8-1.8-1.8-1.8c-1,0-1.8,0.8-1.8,1.9c0,1,0.8,1.7,1.7,1.7
		C852.2,35.2,853,34.4,853,33.4z"/>
	<path fill="#A9A9A9" d="M850.3,47.4c-0.1,0.6-0.4,1-0.9,1c-0.6,0-1-0.3-1.1-1c0-0.6,0.4-1,1-1C849.9,46.5,850.2,46.9,850.3,47.4z"
		/>
</g>
<g>
	<path fill="#FFFFFF" d="M876,94.5c0,10.2-8.5,18.7-18.7,18.6c-10.3,0-18.7-8.5-18.7-18.8c0-10.2,8.5-18.6,18.8-18.6
		C867.6,75.8,876,84.2,876,94.5z M840.7,94.3c0.1,9,6.9,16.6,16.5,16.7c9,0.1,16.5-6.7,16.7-16.4c0.1-8.9-6.7-16.6-16.4-16.7
		C848.5,77.8,841,84.6,840.7,94.3z"/>
	<path fill="#FFFFFF" d="M852.5,100.2c-0.4,0-0.7-0.2-0.9-0.6c-0.2-0.5-0.1-1,0.3-1.3c0.9-1,1.9-1.9,2.8-2.8c3-3,6-6,8.9-8.9
		c0.3-0.3,0.6-0.6,0.9-0.9c0.5-0.4,0.9-0.4,1.4,0c0.5,0.5,0.5,1,0,1.4c-1.2,1.2-2.3,2.4-3.5,3.6c-2.9,2.9-5.9,5.9-8.8,8.8
		C853.3,99.9,853,100.2,852.5,100.2z"/>
	<path fill="#FFFFFF" d="M863.1,96.7c2.2,0,3.9,1.7,3.9,3.9c0,2.2-1.8,3.9-4,3.9c-2.2,0-3.9-1.7-3.9-3.9
		C859.2,98.3,860.9,96.7,863.1,96.7z M864.9,100.5c0-1.1-0.8-1.8-1.9-1.8c-1,0-1.7,0.8-1.7,1.8c0,1,0.8,1.8,1.8,1.8
		C864.1,102.3,864.9,101.6,864.9,100.5z"/>
	<path fill="#FFFFFF" d="M855.1,88.5c0,2.2-1.7,3.8-4,3.8c-2.2,0-3.8-1.7-3.8-3.9c0-2.2,1.7-3.9,4-3.8
		C853.5,84.5,855.1,86.2,855.1,88.5z M853,88.4c0-1-0.8-1.8-1.8-1.8c-1,0-1.8,0.8-1.8,1.9c0,1,0.8,1.7,1.7,1.7
		C852.2,90.2,853,89.4,853,88.4z"/>
	<path fill="#FFFFFF" d="M850.3,102.4c-0.1,0.6-0.4,1-0.9,1c-0.6,0-1-0.3-1.1-1c0-0.6,0.4-1,1-1
		C849.9,101.5,850.2,101.9,850.3,102.4z"/>
</g>
</svg>
